<?xml version="1.0" encoding="utf-8" standalone="no"?>
<!DOCTYPE svg PUBLIC "-//W3C//DTD SVG 1.1//EN"
  "http://www.w3.org/Graphics/SVG/1.1/DTD/svg11.dtd">
<svg xmlns:xlink="http://www.w3.org/1999/xlink" width="638.64pt" height="419.68pt" viewBox="0 0 638.64 419.68" xmlns="http://www.w3.org/2000/svg" version="1.1">
 <metadata>
  <rdf:RDF xmlns:dc="http://purl.org/dc/elements/1.1/" xmlns:cc="http://creativecommons.org/ns#" xmlns:rdf="http://www.w3.org/1999/02/22-rdf-syntax-ns#">
   <cc:Work>
    <dc:type rdf:resource="http://purl.org/dc/dcmitype/StillImage"/>
    <dc:date>2026-09-26T20:01:06.389204</dc:date>
    <dc:format>image/svg+xml</dc:format>
    <dc:creator>
     <cc:Agent>
      <dc:title>Matplotlib v3.11.2, https://matplotlib.org/</dc:title>
     </cc:Agent>
    </dc:creator>
   </cc:Work>
  </rdf:RDF>
 </metadata>
 <defs>
  <style type="text/css">*{stroke-linejoin: round; stroke-linecap: butt}</style>
 </defs>
 <g id="figure_1">
  <g id="patch_1">
   <path d="M 0 419.68 
L 638.64 419.68 
L 638.64 0 
L 0 0 
z
" style="fill: #ffffff"/>
  </g>
  <g id="axes_1">
   <g id="patch_2">
    <path d="M 82.435714 218.436923 
L 139.564286 218.436923 
L 139.564286 167.261538 
L 82.435714 167.261538 
z
" clip-path="url(#p369c976fb6)" style="fill: #f0f3f6; stroke: #c2cbd3; stroke-linejoin: miter"/>
   </g>
   <g id="patch_3">
    <path d="M 148.864286 218.436923 
L 205.992857 218.436923 
L 205.992857 167.261538 
L 148.864286 167.261538 
z
" clip-path="url(#p369c976fb6)" style="fill: #2563a6; fill-opacity: 0.12549; stroke: #2563a6; stroke-width: 2; stroke-linejoin: miter"/>
   </g>
   <g id="patch_4">
    <path d="M 215.292857 218.436923 
L 272.421429 218.436923 
L 272.421429 167.261538 
L 215.292857 167.261538 
z
" clip-path="url(#p369c976fb6)" style="fill: #f0f3f6; stroke: #c2cbd3; stroke-linejoin: miter"/>
   </g>
   <g id="patch_5">
    <path d="M 82.435714 291.544615 
L 139.564286 291.544615 
L 139.564286 240.369231 
L 82.435714 240.369231 
z
" clip-path="url(#p369c976fb6)" style="fill: #f0f3f6; stroke: #c2cbd3; stroke-linejoin: miter"/>
   </g>
   <g id="patch_6">
    <path d="M 148.864286 291.544615 
L 205.992857 291.544615 
L 205.992857 240.369231 
L 148.864286 240.369231 
z
" clip-path="url(#p369c976fb6)" style="fill: #2563a6; fill-opacity: 0.12549; stroke: #2563a6; stroke-width: 2; stroke-linejoin: miter"/>
   </g>
   <g id="patch_7">
    <path d="M 215.292857 291.544615 
L 272.421429 291.544615 
L 272.421429 240.369231 
L 215.292857 240.369231 
z
" clip-path="url(#p369c976fb6)" style="fill: #f0f3f6; stroke: #c2cbd3; stroke-linejoin: miter"/>
   </g>
   <g id="text_1">
    <!-- 1 -->
    <g style="fill: #182e43" transform="translate(106.990625 200.049231) scale(0.2 -0.2)">
     <defs>
      <path id="PingFangHK-Regular-14" d="M 1472 4570 
C 1318 4397 1139 4243 922 4102 
C 704 3974 486 3885 282 3827 
L 282 3302 
C 710 3430 1069 3635 1357 3930 
L 1357 0 
L 1882 0 
L 1882 4570 
L 1472 4570 
z
" transform="scale(0.015625)"/>
     </defs>
     <use xlink:href="#PingFangHK-Regular-14"/>
    </g>
   </g>
   <g id="text_2">
    <!-- 10 -->
    <g style="fill: #182e43" transform="translate(167.419196 200.049231) scale(0.2 -0.2)">
     <defs>
      <path id="PingFangHK-Regular-13" d="M 1920 4659 
C 1370 4659 960 4422 685 3936 
C 442 3526 320 2976 320 2285 
C 320 1594 442 1043 685 634 
C 960 154 1370 -90 1920 -90 
C 2464 -90 2874 154 3155 634 
C 3398 1043 3520 1594 3520 2285 
C 3520 2976 3398 3526 3155 3936 
C 2874 4422 2464 4659 1920 4659 
z
M 1920 4211 
C 2330 4211 2624 3994 2803 3552 
C 2931 3245 3002 2822 3002 2285 
C 3002 1754 2931 1331 2803 1018 
C 2624 582 2330 358 1920 358 
C 1510 358 1216 582 1037 1018 
C 909 1331 845 1754 845 2285 
C 845 2822 909 3245 1037 3552 
C 1216 3994 1510 4211 1920 4211 
z
" transform="scale(0.015625)"/>
     </defs>
     <use xlink:href="#PingFangHK-Regular-14"/>
     <use xlink:href="#PingFangHK-Regular-13" transform="translate(40.09375 0)"/>
    </g>
   </g>
   <g id="text_3">
    <!-- 3 -->
    <g style="fill: #182e43" transform="translate(237.857143 200.049231) scale(0.2 -0.2)">
     <defs>
      <path id="PingFangHK-Regular-16" d="M 1965 4659 
C 1530 4659 1178 4538 909 4288 
C 627 4038 461 3693 422 3251 
L 941 3251 
C 973 3558 1075 3795 1254 3962 
C 1427 4128 1664 4205 1971 4205 
C 2266 4205 2502 4134 2669 3981 
C 2822 3840 2906 3642 2906 3386 
C 2906 3130 2822 2931 2662 2790 
C 2502 2656 2272 2586 1965 2586 
L 1613 2586 
L 1613 2176 
L 1984 2176 
C 2304 2176 2547 2106 2726 1952 
C 2906 1798 2995 1587 2995 1312 
C 2995 1043 2899 819 2720 640 
C 2522 454 2259 358 1933 358 
C 1645 358 1408 442 1216 595 
C 992 781 870 1056 858 1414 
L 326 1414 
C 365 902 544 512 870 243 
C 1146 26 1498 -90 1933 -90 
C 2406 -90 2790 45 3085 314 
C 3373 576 3520 915 3520 1331 
C 3520 1600 3443 1824 3290 2003 
C 3149 2182 2944 2310 2675 2394 
C 3174 2560 3424 2906 3424 3418 
C 3424 3802 3290 4102 3027 4326 
C 2758 4550 2400 4659 1965 4659 
z
" transform="scale(0.015625)"/>
     </defs>
     <use xlink:href="#PingFangHK-Regular-16"/>
    </g>
   </g>
   <g id="text_4">
    <!-- 5 -->
    <g style="fill: #182e43" transform="translate(105 273.156923) scale(0.2 -0.2)">
     <defs>
      <path id="PingFangHK-Regular-18" d="M 672 4570 
L 429 2048 
L 928 2048 
C 1018 2227 1158 2368 1338 2458 
C 1510 2554 1702 2598 1920 2598 
C 2253 2598 2515 2502 2701 2298 
C 2893 2099 2995 1818 2995 1453 
C 2995 1133 2886 870 2682 666 
C 2470 461 2208 358 1888 358 
C 1606 358 1370 429 1190 563 
C 986 717 870 941 845 1229 
L 326 1229 
C 358 813 531 480 851 237 
C 1133 19 1478 -90 1882 -90 
C 2330 -90 2714 51 3021 326 
C 3347 621 3514 998 3514 1459 
C 3514 1952 3373 2336 3104 2618 
C 2835 2893 2483 3027 2048 3027 
C 1837 3027 1645 2995 1466 2918 
C 1267 2842 1101 2726 973 2573 
L 947 2573 
L 1101 4102 
L 3328 4102 
L 3328 4570 
L 672 4570 
z
" transform="scale(0.015625)"/>
     </defs>
     <use xlink:href="#PingFangHK-Regular-18"/>
    </g>
   </g>
   <g id="text_5">
    <!-- 14 -->
    <g style="fill: #182e43" transform="translate(167.419196 273.156923) scale(0.2 -0.2)">
     <defs>
      <path id="PingFangHK-Regular-17" d="M 2458 4570 
L 154 1536 
L 154 1037 
L 2451 1037 
L 2451 0 
L 2950 0 
L 2950 1037 
L 3693 1037 
L 3693 1466 
L 2950 1466 
L 2950 4570 
L 2458 4570 
z
M 2432 3885 
L 2451 3885 
L 2451 1466 
L 595 1466 
L 2432 3885 
z
" transform="scale(0.015625)"/>
     </defs>
     <use xlink:href="#PingFangHK-Regular-14"/>
     <use xlink:href="#PingFangHK-Regular-17" transform="translate(40.09375 0)"/>
    </g>
   </g>
   <g id="text_6">
    <!-- 9 -->
    <g style="fill: #182e43" transform="translate(237.857143 273.156923) scale(0.2 -0.2)">
     <defs>
      <path id="PingFangHK-Regular-1c" d="M 1869 4659 
C 1421 4659 1050 4512 762 4211 
C 467 3917 326 3546 326 3091 
C 326 2650 454 2291 717 2016 
C 986 1728 1338 1581 1779 1581 
C 2048 1581 2285 1651 2490 1779 
C 2701 1914 2867 2099 2982 2330 
L 3008 2330 
C 3008 2253 3014 2195 3014 2163 
C 3014 1651 2912 1222 2714 883 
C 2502 531 2221 352 1869 352 
C 1331 352 1018 614 922 1133 
L 403 1133 
C 525 320 1011 -90 1862 -90 
C 2374 -90 2784 154 3091 627 
C 3373 1088 3520 1677 3520 2406 
C 3520 3110 3386 3661 3117 4045 
C 2835 4454 2419 4659 1869 4659 
z
M 1882 4218 
C 2195 4218 2451 4109 2643 3891 
C 2829 3686 2925 3424 2925 3104 
C 2925 2790 2822 2528 2630 2323 
C 2426 2118 2176 2016 1882 2016 
C 1562 2016 1312 2118 1126 2317 
C 934 2509 845 2771 845 3091 
C 845 3424 934 3693 1126 3904 
C 1318 4115 1568 4218 1882 4218 
z
" transform="scale(0.015625)"/>
     </defs>
     <use xlink:href="#PingFangHK-Regular-1c"/>
    </g>
   </g>
   <g id="text_7">
    <!-- 特征 1 -->
    <g style="fill: #182e43" transform="translate(95.963516 147.522462) scale(0.11 -0.11)">
     <defs>
      <path id="PingFangHK-Regular-11d9" d="M 4173 5229 
L 4173 4544 
L 3046 4544 
L 3046 4128 
L 4173 4128 
L 4173 3379 
L 2694 3379 
L 2694 2944 
L 6099 2944 
L 6099 3379 
L 4634 3379 
L 4634 4128 
L 5818 4128 
L 5818 4544 
L 4634 4544 
L 4634 5229 
L 4173 5229 
z
M 2848 2189 
L 2848 1754 
L 4896 1754 
L 4896 64 
C 4896 -102 4819 -192 4678 -192 
C 4435 -192 4186 -179 3930 -160 
L 4026 -595 
L 4838 -595 
C 5171 -595 5344 -410 5344 -51 
L 5344 1754 
L 6048 1754 
L 6048 2189 
L 5344 2189 
L 5344 2605 
L 4896 2605 
L 4896 2189 
L 2848 2189 
z
M 3322 1459 
L 2963 1235 
C 3283 870 3539 538 3725 230 
L 4090 486 
C 3910 768 3654 1088 3322 1459 
z
M 902 3443 
L 1504 3443 
L 1504 1747 
C 1107 1619 704 1510 294 1427 
L 403 979 
C 774 1082 1146 1190 1504 1312 
L 1504 -640 
L 1946 -640 
L 1946 1478 
C 2144 1555 2342 1638 2547 1728 
L 2547 2163 
C 2349 2074 2150 1990 1946 1907 
L 1946 3443 
L 2528 3443 
L 2528 3891 
L 1946 3891 
L 1946 5222 
L 1504 5222 
L 1504 3891 
L 966 3891 
C 998 4147 1018 4410 1030 4685 
L 608 4717 
C 582 3981 467 3283 269 2618 
L 672 2502 
C 762 2803 838 3117 902 3443 
z
" transform="scale(0.015625)"/>
      <path id="PingFangHK-Regular-b84" d="M 4173 4410 
L 4173 64 
L 3194 64 
L 3194 3418 
L 2746 3418 
L 2746 64 
L 2125 64 
L 2125 -384 
L 6189 -384 
L 6189 64 
L 4634 64 
L 4634 2253 
L 5888 2253 
L 5888 2682 
L 4634 2682 
L 4634 4410 
L 6029 4410 
L 6029 4851 
L 2310 4851 
L 2310 4410 
L 4173 4410 
z
M 1568 5254 
C 1293 4653 858 4122 262 3661 
L 397 3200 
C 1126 3738 1651 4358 1971 5062 
L 1568 5254 
z
M 1798 3603 
C 1478 2944 979 2362 294 1850 
L 429 1402 
C 685 1594 928 1792 1146 1997 
L 1146 -640 
L 1594 -640 
L 1594 2477 
C 1837 2778 2035 3091 2195 3424 
L 1798 3603 
z
" transform="scale(0.015625)"/>
      <path id="PingFangHK-Regular-3" transform="scale(0.015625)"/>
     </defs>
     <use xlink:href="#PingFangHK-Regular-11d9"/>
     <use xlink:href="#PingFangHK-Regular-b84" transform="translate(100 0)"/>
     <use xlink:href="#PingFangHK-Regular-3" transform="translate(200 0)"/>
     <use xlink:href="#PingFangHK-Regular-14" transform="translate(233.296875 0)"/>
    </g>
   </g>
   <g id="text_8">
    <!-- 特征 2 -->
    <g style="fill: #182e43" transform="translate(161.297243 147.522462) scale(0.11 -0.11)">
     <defs>
      <path id="PingFangHK-Regular-15" d="M 1984 4659 
C 1523 4659 1146 4506 864 4198 
C 582 3898 435 3488 435 2976 
L 960 2976 
C 966 3379 1062 3686 1242 3891 
C 1408 4109 1651 4211 1965 4211 
C 2259 4211 2496 4134 2662 3981 
C 2829 3827 2912 3616 2912 3334 
C 2912 3040 2790 2765 2560 2515 
C 2438 2387 2202 2202 1843 1946 
C 1357 1613 1030 1338 851 1133 
C 544 794 397 416 397 0 
L 3443 0 
L 3443 467 
L 1043 467 
C 1126 774 1459 1126 2042 1517 
C 2515 1837 2829 2086 2989 2253 
C 3283 2573 3437 2931 3437 3328 
C 3437 3725 3296 4051 3027 4294 
C 2752 4538 2406 4659 1984 4659 
z
" transform="scale(0.015625)"/>
     </defs>
     <use xlink:href="#PingFangHK-Regular-11d9"/>
     <use xlink:href="#PingFangHK-Regular-b84" transform="translate(100 0)"/>
     <use xlink:href="#PingFangHK-Regular-3" transform="translate(200 0)"/>
     <use xlink:href="#PingFangHK-Regular-15" transform="translate(233.296875 0)"/>
    </g>
   </g>
   <g id="text_9">
    <!-- 特征 3 -->
    <g style="fill: #182e43" transform="translate(227.725815 147.522462) scale(0.11 -0.11)">
     <use xlink:href="#PingFangHK-Regular-11d9"/>
     <use xlink:href="#PingFangHK-Regular-b84" transform="translate(100 0)"/>
     <use xlink:href="#PingFangHK-Regular-3" transform="translate(200 0)"/>
     <use xlink:href="#PingFangHK-Regular-16" transform="translate(233.296875 0)"/>
    </g>
   </g>
   <g id="text_10">
    <!-- 样本 1 -->
    <g style="fill: #182e43" transform="translate(34.427031 196.809231) scale(0.11 -0.11)">
     <defs>
      <path id="PingFangHK-Regular-ecf" d="M 4026 3635 
L 4026 2694 
L 2778 2694 
L 2778 2259 
L 4026 2259 
L 4026 1293 
L 2432 1293 
L 2432 851 
L 4026 851 
L 4026 -659 
L 4486 -659 
L 4486 851 
L 6112 851 
L 6112 1293 
L 4486 1293 
L 4486 2259 
L 5754 2259 
L 5754 2694 
L 4486 2694 
L 4486 3635 
L 5946 3635 
L 5946 4070 
L 5005 4070 
C 5190 4365 5363 4704 5517 5088 
L 5075 5242 
C 4922 4826 4749 4435 4550 4070 
L 3546 4070 
L 3910 4250 
C 3731 4595 3546 4915 3354 5210 
L 2970 5030 
C 3162 4749 3347 4429 3526 4070 
L 2579 4070 
L 2579 3635 
L 4026 3635 
z
M 1677 2618 
C 1843 2400 2029 2125 2246 1786 
L 2496 2157 
C 2214 2515 1946 2842 1677 3130 
L 1677 3533 
L 2317 3533 
L 2317 3974 
L 1677 3974 
L 1677 5222 
L 1235 5222 
L 1235 3974 
L 435 3974 
L 435 3533 
L 1203 3533 
C 1005 2733 678 2029 230 1414 
L 467 1030 
C 781 1510 1037 2042 1235 2624 
L 1235 -646 
L 1677 -646 
L 1677 2618 
z
" transform="scale(0.015625)"/>
      <path id="PingFangHK-Regular-e5c" d="M 461 4051 
L 461 3610 
L 2554 3610 
C 2080 2477 1312 1549 237 832 
L 499 403 
C 1638 1242 2445 2310 2918 3610 
L 2963 3610 
L 2963 1114 
L 1645 1114 
L 1645 672 
L 2963 672 
L 2963 -640 
L 3437 -640 
L 3437 672 
L 4806 672 
L 4806 1114 
L 3437 1114 
L 3437 3610 
L 3488 3610 
C 3923 2451 4704 1408 5830 486 
L 6144 883 
C 5043 1683 4275 2592 3846 3610 
L 5933 3610 
L 5933 4051 
L 3437 4051 
L 3437 5210 
L 2963 5210 
L 2963 4051 
L 461 4051 
z
" transform="scale(0.015625)"/>
     </defs>
     <use xlink:href="#PingFangHK-Regular-ecf"/>
     <use xlink:href="#PingFangHK-Regular-e5c" transform="translate(100 0)"/>
     <use xlink:href="#PingFangHK-Regular-3" transform="translate(200 0)"/>
     <use xlink:href="#PingFangHK-Regular-14" transform="translate(233.296875 0)"/>
    </g>
   </g>
   <g id="text_11">
    <!-- 样本 2 -->
    <g style="fill: #182e43" transform="translate(32.237344 269.916923) scale(0.11 -0.11)">
     <use xlink:href="#PingFangHK-Regular-ecf"/>
     <use xlink:href="#PingFangHK-Regular-e5c" transform="translate(100 0)"/>
     <use xlink:href="#PingFangHK-Regular-3" transform="translate(200 0)"/>
     <use xlink:href="#PingFangHK-Regular-15" transform="translate(233.296875 0)"/>
    </g>
   </g>
   <g id="text_12">
    <!-- 高亮列：[10, 14] -->
    <g style="fill: #2563a6" transform="translate(116.921373 315.670154) scale(0.13 -0.13)">
     <defs>
      <path id="PingFangHK-Regular-1e5b" d="M 3283 5267 
L 2778 5178 
C 2854 5030 2931 4870 2995 4691 
L 371 4691 
L 371 4269 
L 6022 4269 
L 6022 4691 
L 3488 4691 
C 3424 4902 3354 5094 3283 5267 
z
M 4998 -621 
C 5466 -621 5702 -416 5702 -13 
L 5702 2227 
L 698 2227 
L 698 -640 
L 1139 -640 
L 1139 1824 
L 5261 1824 
L 5261 83 
C 5261 -122 5126 -224 4864 -224 
L 4352 -205 
L 4461 -621 
L 4998 -621 
z
M 1414 3853 
L 1414 2611 
L 4992 2611 
L 4992 3853 
L 1414 3853 
z
M 4544 2970 
L 1862 2970 
L 1862 3494 
L 4544 3494 
L 4544 2970 
z
M 1946 1414 
L 1946 134 
L 4461 134 
L 4461 1414 
L 1946 1414 
z
M 4051 480 
L 2362 480 
L 2362 1069 
L 4051 1069 
L 4051 480 
z
" transform="scale(0.015625)"/>
      <path id="PingFangHK-Regular-729d" d="M 467 4717 
L 467 4314 
L 5933 4314 
L 5933 4717 
L 3482 4717 
C 3379 4928 3270 5120 3162 5286 
L 2662 5210 
C 2784 5062 2899 4896 3002 4717 
L 467 4717 
z
M 1427 3891 
L 1427 2688 
L 4973 2688 
L 4973 3891 
L 1427 3891 
z
M 4518 3053 
L 1882 3053 
L 1882 3520 
L 4518 3520 
L 4518 3053 
z
M 5786 2272 
L 608 2272 
L 608 1126 
L 1069 1126 
L 1069 1862 
L 5325 1862 
L 5325 1146 
L 5786 1146 
L 5786 2272 
z
M 2227 1440 
L 2227 941 
C 2208 627 2074 371 1824 173 
C 1555 -19 1075 -173 390 -288 
L 634 -672 
C 1344 -531 1856 -346 2170 -102 
C 2490 160 2656 506 2675 941 
L 2675 1440 
L 2227 1440 
z
M 5318 -570 
C 5498 -563 5645 -518 5747 -435 
C 5850 -326 5926 -19 5971 493 
L 5562 621 
C 5536 211 5491 -26 5421 -96 
C 5357 -141 5286 -166 5203 -166 
L 4384 -166 
C 4243 -166 4173 -90 4173 51 
L 4173 1453 
L 3725 1453 
L 3725 -32 
C 3725 -390 3904 -570 4269 -570 
L 5318 -570 
z
" transform="scale(0.015625)"/>
      <path id="PingFangHK-Regular-69c" d="M 5210 -582 
C 5645 -582 5862 -352 5862 96 
L 5862 5184 
L 5402 5184 
L 5402 205 
C 5402 -45 5280 -173 5050 -173 
C 4794 -173 4518 -160 4237 -141 
L 4339 -582 
L 5210 -582 
z
M 4038 4698 
L 4038 653 
L 4486 653 
L 4486 4698 
L 4038 4698 
z
M 461 4954 
L 461 4506 
L 1453 4506 
C 1318 3456 934 2637 307 2035 
L 525 1606 
C 698 1766 858 1946 1005 2138 
C 1427 1907 1798 1658 2125 1389 
C 1715 723 1146 205 422 -166 
L 646 -576 
C 2067 147 2938 1414 3251 3219 
L 3251 3629 
L 1728 3629 
C 1805 3904 1862 4198 1907 4506 
L 3565 4506 
L 3565 4954 
L 461 4954 
z
M 1235 2490 
C 1363 2707 1478 2938 1581 3194 
L 2810 3194 
C 2707 2675 2547 2202 2336 1773 
C 2016 2022 1651 2259 1235 2490 
z
" transform="scale(0.015625)"/>
      <path id="PingFangHK-Regular-7269" d="M 3200 3898 
C 3085 3898 2995 3859 2918 3776 
C 2842 3706 2810 3616 2810 3501 
C 2810 3392 2842 3302 2918 3226 
C 2995 3149 3085 3110 3200 3110 
C 3309 3110 3405 3149 3482 3226 
C 3558 3302 3597 3392 3597 3501 
C 3597 3616 3558 3706 3482 3776 
C 3405 3859 3309 3898 3200 3898 
z
M 3200 1555 
C 3085 1555 2995 1517 2918 1434 
C 2842 1363 2810 1274 2810 1158 
C 2810 1050 2842 960 2918 883 
C 2995 806 3085 768 3200 768 
C 3309 768 3405 806 3482 883 
C 3558 960 3597 1050 3597 1158 
C 3597 1274 3558 1363 3482 1434 
C 3405 1517 3309 1555 3200 1555 
z
" transform="scale(0.015625)"/>
      <path id="PingFangHK-Regular-3e" d="M 282 5293 
L 282 -685 
L 1850 -685 
L 1850 -256 
L 755 -256 
L 755 4864 
L 1850 4864 
L 1850 5293 
L 282 5293 
z
" transform="scale(0.015625)"/>
      <path id="PingFangHK-Regular-f" d="M 845 762 
C 717 762 621 730 550 653 
C 467 582 429 486 429 365 
C 429 256 467 160 544 83 
C 621 6 710 -32 819 -32 
C 883 -32 928 -19 960 -6 
C 960 -160 909 -301 819 -435 
C 717 -563 576 -659 410 -717 
L 410 -1030 
C 685 -960 909 -819 1075 -614 
C 1242 -397 1325 -147 1325 134 
C 1325 320 1280 467 1197 582 
C 1107 704 986 762 845 762 
z
" transform="scale(0.015625)"/>
      <path id="PingFangHK-Regular-40" d="M 282 5293 
L 282 4864 
L 1376 4864 
L 1376 -256 
L 282 -256 
L 282 -685 
L 1850 -685 
L 1850 5293 
L 282 5293 
z
" transform="scale(0.015625)"/>
     </defs>
     <use xlink:href="#PingFangHK-Regular-1e5b"/>
     <use xlink:href="#PingFangHK-Regular-729d" transform="translate(100 0)"/>
     <use xlink:href="#PingFangHK-Regular-69c" transform="translate(200 0)"/>
     <use xlink:href="#PingFangHK-Regular-7269" transform="translate(300 0)"/>
     <use xlink:href="#PingFangHK-Regular-3e" transform="translate(400 0)"/>
     <use xlink:href="#PingFangHK-Regular-14" transform="translate(433.296875 0)"/>
     <use xlink:href="#PingFangHK-Regular-13" transform="translate(473.390625 0)"/>
     <use xlink:href="#PingFangHK-Regular-f" transform="translate(533.390625 0)"/>
     <use xlink:href="#PingFangHK-Regular-3" transform="translate(559.796875 0)"/>
     <use xlink:href="#PingFangHK-Regular-14" transform="translate(593.09375 0)"/>
     <use xlink:href="#PingFangHK-Regular-17" transform="translate(633.1875 0)"/>
     <use xlink:href="#PingFangHK-Regular-40" transform="translate(693.1875 0)"/>
    </g>
   </g>
   <g id="text_13">
    <!-- BatchNorm：对一个特征，跨样本统计 -->
    <g style="fill: #182e43" transform="translate(44.710781 89.12) scale(0.13 -0.13)">
     <defs>
      <path id="PingFangHK-Semibold-25" d="M 448 4570 
L 448 0 
L 2547 0 
C 3034 0 3418 90 3686 269 
C 4000 486 4160 826 4160 1286 
C 4160 1594 4083 1843 3936 2022 
C 3782 2208 3558 2330 3258 2387 
C 3488 2477 3661 2598 3782 2765 
C 3904 2944 3968 3162 3968 3418 
C 3968 3763 3846 4038 3610 4243 
C 3354 4461 2995 4570 2541 4570 
L 448 4570 
z
M 1197 3955 
L 2355 3955 
C 2662 3955 2880 3904 3021 3802 
C 3149 3706 3219 3546 3219 3328 
C 3219 3091 3149 2918 3021 2810 
C 2886 2707 2662 2650 2342 2650 
L 1197 2650 
L 1197 3955 
z
M 1197 2035 
L 2458 2035 
C 2790 2035 3034 1978 3187 1862 
C 3334 1747 3411 1562 3411 1299 
C 3411 1043 3309 864 3104 749 
C 2944 659 2720 614 2438 614 
L 1197 614 
L 1197 2035 
z
" transform="scale(0.015625)"/>
      <path id="PingFangHK-Semibold-44" d="M 1888 3398 
C 1466 3398 1133 3328 890 3174 
C 602 3008 422 2739 352 2374 
L 1075 2317 
C 1114 2490 1210 2618 1350 2701 
C 1472 2778 1632 2810 1837 2810 
C 2310 2810 2547 2598 2547 2163 
L 2547 2035 
L 1824 2016 
C 1338 2003 960 1901 691 1709 
C 397 1510 256 1222 256 851 
C 256 576 358 352 563 173 
C 762 0 1030 -90 1376 -90 
C 1664 -90 1914 -38 2125 58 
C 2310 147 2470 269 2598 435 
L 2598 0 
L 3277 0 
L 3277 2112 
C 3277 2515 3174 2822 2970 3034 
C 2739 3277 2374 3398 1888 3398 
z
M 2547 1510 
L 2547 1344 
C 2547 1088 2445 877 2253 710 
C 2061 550 1824 467 1542 467 
C 1382 467 1254 512 1152 589 
C 1050 666 1005 762 1005 877 
C 1005 1274 1293 1478 1875 1491 
L 2547 1510 
z
" transform="scale(0.015625)"/>
      <path id="PingFangHK-Semibold-57" d="M 1421 4378 
L 691 4077 
L 691 3309 
L 96 3309 
L 96 2707 
L 691 2707 
L 691 838 
C 691 570 755 371 883 230 
C 1018 77 1229 0 1517 0 
L 2074 0 
L 2074 602 
L 1638 602 
C 1562 602 1510 621 1472 659 
C 1434 704 1421 762 1421 838 
L 1421 2707 
L 2157 2707 
L 2157 3309 
L 1421 3309 
L 1421 4378 
z
" transform="scale(0.015625)"/>
      <path id="PingFangHK-Semibold-46" d="M 1869 3398 
C 1350 3398 947 3226 659 2880 
C 390 2566 256 2157 256 1658 
C 256 1146 390 730 666 410 
C 947 77 1344 -90 1856 -90 
C 2285 -90 2630 19 2886 230 
C 3149 448 3322 781 3398 1229 
L 2675 1229 
C 2618 749 2349 506 1862 506 
C 1581 506 1370 608 1229 806 
C 1075 1011 1005 1299 1005 1664 
C 1005 2022 1082 2304 1235 2502 
C 1389 2707 1600 2803 1869 2803 
C 2086 2803 2266 2752 2400 2650 
C 2528 2547 2618 2394 2662 2182 
L 3386 2182 
C 3322 2598 3155 2906 2893 3110 
C 2637 3302 2298 3398 1869 3398 
z
" transform="scale(0.015625)"/>
      <path id="PingFangHK-Semibold-4b" d="M 384 4659 
L 384 0 
L 1114 0 
L 1114 1850 
C 1114 2131 1178 2355 1312 2534 
C 1440 2714 1619 2803 1850 2803 
C 2099 2803 2285 2726 2413 2566 
C 2522 2419 2579 2202 2579 1920 
L 2579 0 
L 3309 0 
L 3309 2048 
C 3309 2490 3213 2822 3027 3046 
C 2829 3283 2528 3398 2125 3398 
C 1914 3398 1728 3360 1568 3277 
C 1389 3187 1235 3053 1114 2867 
L 1114 4659 
L 384 4659 
z
" transform="scale(0.015625)"/>
      <path id="PingFangHK-Semibold-31" d="M 448 4570 
L 448 0 
L 1197 0 
L 1197 3341 
L 1222 3341 
L 3507 0 
L 4237 0 
L 4237 4570 
L 3482 4570 
L 3482 1274 
L 3456 1274 
L 1197 4570 
L 448 4570 
z
" transform="scale(0.015625)"/>
      <path id="PingFangHK-Semibold-52" d="M 1920 3398 
C 1414 3398 1011 3238 710 2906 
C 403 2579 256 2163 256 1651 
C 256 1146 403 730 704 410 
C 1011 77 1414 -90 1920 -90 
C 2419 -90 2829 77 3136 410 
C 3430 730 3584 1146 3584 1651 
C 3584 2163 3430 2579 3130 2906 
C 2822 3238 2419 3398 1920 3398 
z
M 1920 2803 
C 2221 2803 2458 2688 2624 2445 
C 2765 2240 2842 1971 2842 1651 
C 2842 1338 2765 1075 2624 864 
C 2458 627 2221 506 1920 506 
C 1613 506 1382 627 1216 864 
C 1075 1069 1005 1331 1005 1651 
C 1005 1971 1075 2240 1216 2445 
C 1382 2688 1613 2803 1920 2803 
z
" transform="scale(0.015625)"/>
      <path id="PingFangHK-Semibold-55" d="M 1946 3398 
C 1741 3398 1568 3341 1421 3219 
C 1299 3130 1197 3002 1107 2835 
L 1107 3309 
L 384 3309 
L 384 0 
L 1107 0 
L 1107 1754 
C 1107 2035 1190 2259 1370 2432 
C 1523 2586 1696 2656 1888 2656 
C 2042 2656 2195 2637 2362 2586 
L 2362 3315 
C 2246 3373 2106 3398 1946 3398 
z
" transform="scale(0.015625)"/>
      <path id="PingFangHK-Semibold-50" d="M 2010 3398 
C 1690 3398 1389 3258 1114 2970 
L 1114 3309 
L 384 3309 
L 384 0 
L 1114 0 
L 1114 1984 
C 1114 2202 1178 2394 1306 2547 
C 1434 2714 1600 2790 1811 2790 
C 2246 2790 2464 2541 2464 2035 
L 2464 0 
L 3194 0 
L 3194 2022 
C 3194 2266 3251 2451 3379 2586 
C 3501 2726 3648 2790 3827 2790 
C 4083 2790 4262 2733 4378 2611 
C 4486 2496 4544 2304 4544 2042 
L 4544 0 
L 5274 0 
L 5274 2170 
C 5274 2534 5158 2829 4941 3059 
C 4710 3290 4429 3398 4090 3398 
C 3866 3398 3680 3360 3533 3283 
C 3366 3206 3206 3066 3053 2861 
C 2842 3219 2496 3398 2010 3398 
z
" transform="scale(0.015625)"/>
      <path id="PingFangHK-Semibold-7269" d="M 3200 4006 
C 3059 4006 2938 3962 2842 3859 
C 2746 3763 2701 3642 2701 3501 
C 2701 3360 2746 3245 2842 3149 
C 2938 3053 3059 3002 3200 3002 
C 3341 3002 3456 3053 3558 3149 
C 3654 3245 3706 3360 3706 3501 
C 3706 3642 3654 3763 3558 3859 
C 3456 3962 3341 4006 3200 4006 
z
M 3200 1664 
C 3059 1664 2938 1619 2842 1517 
C 2746 1421 2701 1299 2701 1158 
C 2701 1018 2746 902 2842 806 
C 2938 710 3059 659 3200 659 
C 3341 659 3456 710 3558 806 
C 3654 902 3706 1018 3706 1158 
C 3706 1299 3654 1421 3558 1517 
C 3456 1619 3341 1664 3200 1664 
z
" transform="scale(0.015625)"/>
      <path id="PingFangHK-Semibold-a52" d="M 3040 4077 
L 3040 3430 
L 4813 3430 
L 4813 288 
C 4813 70 4691 -38 4448 -38 
C 4173 -38 3885 -19 3578 6 
L 3725 -646 
L 4678 -646 
C 5216 -646 5485 -390 5485 122 
L 5485 3430 
L 6125 3430 
L 6125 4077 
L 5485 4077 
L 5485 5267 
L 4813 5267 
L 4813 4077 
L 3040 4077 
z
M 858 3610 
L 403 3181 
C 838 2694 1229 2227 1574 1766 
C 1254 1216 806 723 237 294 
L 621 -282 
C 1165 179 1613 678 1958 1222 
C 2150 947 2317 678 2470 410 
L 2970 909 
C 2765 1229 2547 1542 2304 1862 
C 2624 2573 2790 3347 2797 4192 
L 2797 4678 
L 525 4678 
L 525 4032 
L 2214 4032 
C 2182 3456 2074 2912 1882 2413 
C 1562 2810 1222 3213 858 3610 
z
M 3507 2829 
L 2995 2458 
C 3392 1965 3699 1510 3930 1101 
L 4454 1472 
C 4237 1862 3917 2317 3507 2829 
z
" transform="scale(0.015625)"/>
      <path id="PingFangHK-Semibold-4de" d="M 288 2682 
L 288 2016 
L 6106 2016 
L 6106 2682 
L 288 2682 
z
" transform="scale(0.015625)"/>
      <path id="PingFangHK-Semibold-4fb" d="M 2861 3341 
L 2861 -666 
L 3539 -666 
L 3539 3341 
L 2861 3341 
z
M 2906 5261 
C 2272 4339 1370 3584 192 3008 
L 595 2400 
C 1645 2925 2515 3667 3200 4634 
C 3770 3744 4640 3002 5805 2400 
L 6208 3008 
C 4928 3654 4019 4403 3494 5261 
L 2906 5261 
z
" transform="scale(0.015625)"/>
      <path id="PingFangHK-Semibold-11d9" d="M 4077 5267 
L 4077 4640 
L 3034 4640 
L 3034 4032 
L 4077 4032 
L 4077 3475 
L 2682 3475 
L 2682 2848 
L 6138 2848 
L 6138 3475 
L 4749 3475 
L 4749 4032 
L 5856 4032 
L 5856 4640 
L 4749 4640 
L 4749 5267 
L 4077 5267 
z
M 2822 2285 
L 2822 1658 
L 4755 1658 
L 4755 211 
C 4755 45 4691 -38 4563 -38 
C 4333 -38 4090 -19 3840 6 
L 3974 -621 
L 4787 -621 
C 5197 -621 5408 -397 5408 51 
L 5408 1658 
L 6074 1658 
L 6074 2285 
L 5408 2285 
L 5408 2630 
L 4755 2630 
L 4755 2285 
L 2822 2285 
z
M 3392 1504 
L 2874 1178 
C 3181 819 3424 486 3603 186 
L 4134 557 
C 3955 826 3712 1139 3392 1504 
z
M 992 3347 
L 1402 3347 
L 1402 1818 
C 1018 1702 634 1613 237 1542 
L 397 896 
C 736 986 1069 1088 1402 1197 
L 1402 -666 
L 2048 -666 
L 2048 1427 
C 2214 1491 2387 1562 2560 1632 
L 2560 2259 
C 2394 2182 2227 2112 2048 2042 
L 2048 3347 
L 2528 3347 
L 2528 3987 
L 2048 3987 
L 2048 5248 
L 1402 5248 
L 1402 3987 
L 1082 3987 
C 1107 4218 1120 4461 1133 4704 
L 531 4749 
C 506 4006 397 3296 205 2624 
L 787 2458 
C 870 2746 941 3040 992 3347 
z
" transform="scale(0.015625)"/>
      <path id="PingFangHK-Semibold-b84" d="M 4083 4307 
L 4083 218 
L 3328 218 
L 3328 3443 
L 2675 3443 
L 2675 218 
L 2131 218 
L 2131 -435 
L 6195 -435 
L 6195 218 
L 4755 218 
L 4755 2170 
L 5914 2170 
L 5914 2790 
L 4755 2790 
L 4755 4307 
L 6048 4307 
L 6048 4954 
L 2317 4954 
L 2317 4307 
L 4083 4307 
z
M 1459 5306 
C 1190 4717 774 4211 218 3776 
L 422 3117 
C 1190 3693 1728 4326 2042 5030 
L 1459 5306 
z
M 1664 3642 
C 1357 3014 896 2464 275 2003 
L 480 1357 
C 678 1504 864 1651 1043 1805 
L 1043 -666 
L 1696 -666 
L 1696 2490 
C 1920 2771 2106 3066 2246 3373 
L 1664 3642 
z
" transform="scale(0.015625)"/>
      <path id="PingFangHK-Semibold-7267" d="M 3187 2861 
C 3027 2861 2899 2816 2803 2720 
C 2701 2630 2650 2509 2650 2355 
C 2650 2214 2694 2093 2790 1997 
C 2886 1901 3002 1850 3142 1850 
C 3213 1850 3264 1862 3302 1875 
C 3302 1722 3245 1574 3136 1421 
C 3014 1280 2867 1178 2694 1114 
L 2694 691 
C 3027 787 3296 960 3494 1210 
C 3686 1466 3789 1760 3789 2099 
C 3789 2323 3731 2509 3622 2650 
C 3507 2790 3360 2861 3187 2861 
z
" transform="scale(0.015625)"/>
      <path id="PingFangHK-Semibold-1a9c" d="M 461 5043 
L 461 2880 
L 1299 2880 
L 1299 307 
C 1210 282 1114 256 1018 230 
L 1018 2336 
L 442 2336 
L 442 90 
C 365 77 288 58 205 38 
L 390 -570 
C 1222 -365 1965 -147 2605 83 
L 2605 723 
C 2387 646 2157 563 1914 486 
L 1914 1427 
L 2483 1427 
L 2483 2042 
L 1914 2042 
L 1914 2880 
L 2336 2880 
L 2630 2362 
C 2950 2541 3232 2765 3488 3021 
L 3488 2771 
L 5075 2771 
L 5075 3040 
C 5306 2803 5581 2586 5907 2394 
L 6189 2976 
C 5683 3238 5306 3584 5050 4019 
L 5907 4019 
L 5907 4614 
L 4429 4614 
C 4486 4794 4538 4986 4582 5184 
L 3994 5254 
C 3942 5030 3878 4819 3802 4614 
L 2682 4614 
L 2682 4019 
L 3501 4019 
C 3245 3622 2899 3283 2477 3014 
L 2477 5043 
L 461 5043 
z
M 4813 3334 
L 3757 3334 
C 3910 3539 4058 3770 4186 4019 
L 4397 4019 
C 4499 3776 4640 3552 4813 3334 
z
M 1850 3482 
L 1088 3482 
L 1088 4442 
L 1850 4442 
L 1850 3482 
z
M 2675 2310 
L 2675 1734 
L 3277 1734 
L 3008 678 
L 4941 678 
C 4915 352 4877 147 4826 58 
C 4762 -26 4614 -70 4371 -70 
C 4218 -70 4051 -51 3872 -13 
L 4077 -576 
C 4205 -608 4346 -627 4506 -627 
C 4928 -627 5210 -544 5350 -378 
C 5498 -211 5594 333 5638 1254 
L 3789 1254 
L 3942 1734 
L 5882 1734 
L 5882 2310 
L 2675 2310 
z
" transform="scale(0.015625)"/>
      <path id="PingFangHK-Semibold-ecf" d="M 3949 3565 
L 3949 2816 
L 2765 2816 
L 2765 2189 
L 3949 2189 
L 3949 1414 
L 2413 1414 
L 2413 781 
L 3949 781 
L 3949 -685 
L 4614 -685 
L 4614 781 
L 6157 781 
L 6157 1414 
L 4614 1414 
L 4614 2189 
L 5792 2189 
L 5792 2816 
L 4614 2816 
L 4614 3565 
L 5984 3565 
L 5984 4192 
L 5210 4192 
C 5363 4448 5504 4736 5632 5056 
L 4998 5280 
C 4870 4896 4723 4538 4557 4192 
L 3648 4192 
L 3994 4365 
C 3821 4685 3642 4986 3462 5261 
L 2912 4992 
C 3085 4755 3251 4486 3405 4192 
L 2566 4192 
L 2566 3565 
L 3949 3565 
z
M 1779 2368 
C 1901 2189 2042 1978 2195 1722 
L 2547 2259 
C 2291 2579 2035 2867 1779 3130 
L 1779 3430 
L 2349 3430 
L 2349 4077 
L 1779 4077 
L 1779 5248 
L 1133 5248 
L 1133 4077 
L 403 4077 
L 403 3430 
L 1094 3430 
C 902 2714 595 2080 179 1530 
L 538 986 
C 768 1370 966 1779 1133 2221 
L 1133 -672 
L 1779 -672 
L 1779 2368 
z
" transform="scale(0.015625)"/>
      <path id="PingFangHK-Semibold-e5c" d="M 429 4154 
L 429 3507 
L 2355 3507 
C 1894 2477 1178 1626 192 960 
L 582 333 
C 1645 1152 2400 2202 2861 3488 
L 2861 1216 
L 1613 1216 
L 1613 570 
L 2861 570 
L 2861 -672 
L 3539 -672 
L 3539 570 
L 4838 570 
L 4838 1216 
L 3539 1216 
L 3539 3488 
C 3962 2355 4691 1331 5734 416 
L 6189 992 
C 5178 1728 4461 2566 4038 3507 
L 5965 3507 
L 5965 4154 
L 3539 4154 
L 3539 5242 
L 2861 5242 
L 2861 4154 
L 429 4154 
z
" transform="scale(0.015625)"/>
      <path id="PingFangHK-Semibold-1579" d="M 2445 934 
C 1856 653 1165 422 378 250 
L 461 -416 
C 1203 -237 1862 6 2445 301 
L 2445 934 
z
M 1293 5286 
C 1075 4608 819 3987 525 3424 
C 435 3296 339 3213 237 3168 
L 403 2554 
C 698 2598 992 2643 1274 2682 
C 992 2195 762 1856 582 1664 
C 506 1587 403 1523 282 1472 
L 461 858 
C 1082 954 1741 1146 2445 1440 
L 2445 2054 
C 2054 1882 1670 1741 1293 1638 
C 1626 2093 2042 2790 2541 3731 
L 1946 3962 
C 1824 3725 1709 3501 1606 3296 
C 1414 3264 1222 3238 1030 3219 
C 1338 3693 1638 4294 1933 5037 
L 1293 5286 
z
M 2624 2349 
C 3552 2419 4410 2515 5197 2630 
C 5286 2490 5370 2342 5446 2202 
L 5965 2566 
C 5741 2970 5421 3443 5005 3987 
L 4493 3667 
L 4838 3187 
C 4365 3110 3885 3046 3398 3002 
C 3578 3245 3782 3578 4013 4013 
L 5958 4013 
L 5958 4646 
L 4570 4646 
C 4493 4890 4416 5114 4339 5306 
L 3661 5190 
C 3750 5024 3827 4838 3898 4646 
L 2362 4646 
L 2362 4013 
L 3315 4013 
C 3027 3469 2790 3130 2611 2989 
C 2586 2976 2541 2957 2483 2938 
L 2624 2349 
z
M 3078 2182 
C 3053 1485 2970 986 2829 685 
C 2682 378 2432 109 2074 -122 
L 2502 -659 
C 2938 -365 3245 -13 3430 390 
C 3597 768 3693 1363 3731 2182 
L 3078 2182 
z
M 5446 -550 
C 5754 -525 5958 -454 6048 -326 
C 6138 -186 6189 186 6189 800 
L 5619 1005 
C 5619 710 5606 474 5594 301 
C 5581 141 5523 51 5414 38 
L 5075 38 
C 5005 58 4973 115 4973 211 
L 4973 2259 
L 4339 2259 
L 4339 77 
C 4339 -339 4576 -550 5056 -550 
L 5446 -550 
z
" transform="scale(0.015625)"/>
      <path id="PingFangHK-Semibold-1987" d="M 2266 3411 
L 2266 2746 
L 3917 2746 
L 3917 -685 
L 4608 -685 
L 4608 2746 
L 6176 2746 
L 6176 3411 
L 4608 3411 
L 4608 5267 
L 3917 5267 
L 3917 3411 
L 2266 3411 
z
M 1139 5216 
L 666 4755 
C 1120 4422 1472 4109 1715 3814 
L 2176 4282 
C 1888 4589 1542 4902 1139 5216 
z
M 250 3366 
L 250 2726 
L 1126 2726 
L 1126 454 
C 1126 320 1069 205 954 109 
L 1210 -493 
C 1683 -186 2125 160 2541 544 
L 2368 1229 
C 2157 1030 1958 851 1773 691 
L 1773 3366 
L 250 3366 
z
" transform="scale(0.015625)"/>
     </defs>
     <use xlink:href="#PingFangHK-Semibold-25"/>
     <use xlink:href="#PingFangHK-Semibold-44" transform="translate(69 0)"/>
     <use xlink:href="#PingFangHK-Semibold-57" transform="translate(126.203125 0)"/>
     <use xlink:href="#PingFangHK-Semibold-46" transform="translate(162.40625 0)"/>
     <use xlink:href="#PingFangHK-Semibold-4b" transform="translate(218.5 0)"/>
     <use xlink:href="#PingFangHK-Semibold-31" transform="translate(276.203125 0)"/>
     <use xlink:href="#PingFangHK-Semibold-52" transform="translate(349.40625 0)"/>
     <use xlink:href="#PingFangHK-Semibold-55" transform="translate(409.40625 0)"/>
     <use xlink:href="#PingFangHK-Semibold-50" transform="translate(446.8125 0)"/>
     <use xlink:href="#PingFangHK-Semibold-7269" transform="translate(535.21875 0)"/>
     <use xlink:href="#PingFangHK-Semibold-a52" transform="translate(635.21875 0)"/>
     <use xlink:href="#PingFangHK-Semibold-4de" transform="translate(735.21875 0)"/>
     <use xlink:href="#PingFangHK-Semibold-4fb" transform="translate(835.21875 0)"/>
     <use xlink:href="#PingFangHK-Semibold-11d9" transform="translate(935.21875 0)"/>
     <use xlink:href="#PingFangHK-Semibold-b84" transform="translate(1035.21875 0)"/>
     <use xlink:href="#PingFangHK-Semibold-7267" transform="translate(1135.21875 0)"/>
     <use xlink:href="#PingFangHK-Semibold-1a9c" transform="translate(1235.21875 0)"/>
     <use xlink:href="#PingFangHK-Semibold-ecf" transform="translate(1335.21875 0)"/>
     <use xlink:href="#PingFangHK-Semibold-e5c" transform="translate(1435.21875 0)"/>
     <use xlink:href="#PingFangHK-Semibold-1579" transform="translate(1535.21875 0)"/>
     <use xlink:href="#PingFangHK-Semibold-1987" transform="translate(1635.21875 0)"/>
    </g>
   </g>
  </g>
  <g id="axes_2">
   <g id="patch_8">
    <path d="M 406.075714 218.436923 
L 463.204286 218.436923 
L 463.204286 167.261538 
L 406.075714 167.261538 
z
" clip-path="url(#p59e00db832)" style="fill: #aa4e12; fill-opacity: 0.12549; stroke: #aa4e12; stroke-width: 2; stroke-linejoin: miter"/>
   </g>
   <g id="patch_9">
    <path d="M 472.504286 218.436923 
L 529.632857 218.436923 
L 529.632857 167.261538 
L 472.504286 167.261538 
z
" clip-path="url(#p59e00db832)" style="fill: #aa4e12; fill-opacity: 0.12549; stroke: #aa4e12; stroke-width: 2; stroke-linejoin: miter"/>
   </g>
   <g id="patch_10">
    <path d="M 538.932857 218.436923 
L 596.061429 218.436923 
L 596.061429 167.261538 
L 538.932857 167.261538 
z
" clip-path="url(#p59e00db832)" style="fill: #aa4e12; fill-opacity: 0.12549; stroke: #aa4e12; stroke-width: 2; stroke-linejoin: miter"/>
   </g>
   <g id="patch_11">
    <path d="M 406.075714 291.544615 
L 463.204286 291.544615 
L 463.204286 240.369231 
L 406.075714 240.369231 
z
" clip-path="url(#p59e00db832)" style="fill: #f0f3f6; stroke: #c2cbd3; stroke-linejoin: miter"/>
   </g>
   <g id="patch_12">
    <path d="M 472.504286 291.544615 
L 529.632857 291.544615 
L 529.632857 240.369231 
L 472.504286 240.369231 
z
" clip-path="url(#p59e00db832)" style="fill: #f0f3f6; stroke: #c2cbd3; stroke-linejoin: miter"/>
   </g>
   <g id="patch_13">
    <path d="M 538.932857 291.544615 
L 596.061429 291.544615 
L 596.061429 240.369231 
L 538.932857 240.369231 
z
" clip-path="url(#p59e00db832)" style="fill: #f0f3f6; stroke: #c2cbd3; stroke-linejoin: miter"/>
   </g>
   <g id="text_14">
    <!-- 1 -->
    <g style="fill: #182e43" transform="translate(430.630625 200.049231) scale(0.2 -0.2)">
     <use xlink:href="#PingFangHK-Regular-14"/>
    </g>
   </g>
   <g id="text_15">
    <!-- 10 -->
    <g style="fill: #182e43" transform="translate(491.059196 200.049231) scale(0.2 -0.2)">
     <use xlink:href="#PingFangHK-Regular-14"/>
     <use xlink:href="#PingFangHK-Regular-13" transform="translate(40.09375 0)"/>
    </g>
   </g>
   <g id="text_16">
    <!-- 3 -->
    <g style="fill: #182e43" transform="translate(561.497143 200.049231) scale(0.2 -0.2)">
     <use xlink:href="#PingFangHK-Regular-16"/>
    </g>
   </g>
   <g id="text_17">
    <!-- 5 -->
    <g style="fill: #182e43" transform="translate(428.64 273.156923) scale(0.2 -0.2)">
     <use xlink:href="#PingFangHK-Regular-18"/>
    </g>
   </g>
   <g id="text_18">
    <!-- 14 -->
    <g style="fill: #182e43" transform="translate(491.059196 273.156923) scale(0.2 -0.2)">
     <use xlink:href="#PingFangHK-Regular-14"/>
     <use xlink:href="#PingFangHK-Regular-17" transform="translate(40.09375 0)"/>
    </g>
   </g>
   <g id="text_19">
    <!-- 9 -->
    <g style="fill: #182e43" transform="translate(561.497143 273.156923) scale(0.2 -0.2)">
     <use xlink:href="#PingFangHK-Regular-1c"/>
    </g>
   </g>
   <g id="text_20">
    <!-- 特征 1 -->
    <g style="fill: #182e43" transform="translate(419.603516 147.522462) scale(0.11 -0.11)">
     <use xlink:href="#PingFangHK-Regular-11d9"/>
     <use xlink:href="#PingFangHK-Regular-b84" transform="translate(100 0)"/>
     <use xlink:href="#PingFangHK-Regular-3" transform="translate(200 0)"/>
     <use xlink:href="#PingFangHK-Regular-14" transform="translate(233.296875 0)"/>
    </g>
   </g>
   <g id="text_21">
    <!-- 特征 2 -->
    <g style="fill: #182e43" transform="translate(484.937243 147.522462) scale(0.11 -0.11)">
     <use xlink:href="#PingFangHK-Regular-11d9"/>
     <use xlink:href="#PingFangHK-Regular-b84" transform="translate(100 0)"/>
     <use xlink:href="#PingFangHK-Regular-3" transform="translate(200 0)"/>
     <use xlink:href="#PingFangHK-Regular-15" transform="translate(233.296875 0)"/>
    </g>
   </g>
   <g id="text_22">
    <!-- 特征 3 -->
    <g style="fill: #182e43" transform="translate(551.365815 147.522462) scale(0.11 -0.11)">
     <use xlink:href="#PingFangHK-Regular-11d9"/>
     <use xlink:href="#PingFangHK-Regular-b84" transform="translate(100 0)"/>
     <use xlink:href="#PingFangHK-Regular-3" transform="translate(200 0)"/>
     <use xlink:href="#PingFangHK-Regular-16" transform="translate(233.296875 0)"/>
    </g>
   </g>
   <g id="text_23">
    <!-- 样本 1 -->
    <g style="fill: #182e43" transform="translate(358.067031 196.809231) scale(0.11 -0.11)">
     <use xlink:href="#PingFangHK-Regular-ecf"/>
     <use xlink:href="#PingFangHK-Regular-e5c" transform="translate(100 0)"/>
     <use xlink:href="#PingFangHK-Regular-3" transform="translate(200 0)"/>
     <use xlink:href="#PingFangHK-Regular-14" transform="translate(233.296875 0)"/>
    </g>
   </g>
   <g id="text_24">
    <!-- 样本 2 -->
    <g style="fill: #182e43" transform="translate(355.877344 269.916923) scale(0.11 -0.11)">
     <use xlink:href="#PingFangHK-Regular-ecf"/>
     <use xlink:href="#PingFangHK-Regular-e5c" transform="translate(100 0)"/>
     <use xlink:href="#PingFangHK-Regular-3" transform="translate(200 0)"/>
     <use xlink:href="#PingFangHK-Regular-15" transform="translate(233.296875 0)"/>
    </g>
   </g>
   <g id="text_25">
    <!-- 高亮行：[1, 10, 3] -->
    <g style="fill: #aa4e12" transform="translate(436.68067 315.670154) scale(0.13 -0.13)">
     <defs>
      <path id="PingFangHK-Regular-1908" d="M 2720 4819 
L 2720 4365 
L 5786 4365 
L 5786 4819 
L 2720 4819 
z
M 2547 3194 
L 2547 2739 
L 4563 2739 
L 4563 58 
C 4563 -109 4454 -192 4250 -192 
C 3968 -192 3680 -179 3373 -160 
L 3469 -614 
L 4410 -614 
C 4819 -614 5030 -429 5030 -58 
L 5030 2739 
L 6067 2739 
L 6067 3194 
L 2547 3194 
z
M 1709 5171 
C 1408 4570 928 4032 262 3558 
L 397 3098 
C 1190 3642 1766 4269 2125 4979 
L 1709 5171 
z
M 2010 3712 
C 1651 3002 1082 2374 301 1824 
L 435 1363 
C 742 1574 1018 1798 1274 2029 
L 1274 -640 
L 1728 -640 
L 1728 2496 
C 2010 2816 2240 3162 2426 3520 
L 2010 3712 
z
" transform="scale(0.015625)"/>
     </defs>
     <use xlink:href="#PingFangHK-Regular-1e5b"/>
     <use xlink:href="#PingFangHK-Regular-729d" transform="translate(100 0)"/>
     <use xlink:href="#PingFangHK-Regular-1908" transform="translate(200 0)"/>
     <use xlink:href="#PingFangHK-Regular-7269" transform="translate(300 0)"/>
     <use xlink:href="#PingFangHK-Regular-3e" transform="translate(400 0)"/>
     <use xlink:href="#PingFangHK-Regular-14" transform="translate(433.296875 0)"/>
     <use xlink:href="#PingFangHK-Regular-f" transform="translate(473.390625 0)"/>
     <use xlink:href="#PingFangHK-Regular-3" transform="translate(499.796875 0)"/>
     <use xlink:href="#PingFangHK-Regular-14" transform="translate(533.09375 0)"/>
     <use xlink:href="#PingFangHK-Regular-13" transform="translate(573.1875 0)"/>
     <use xlink:href="#PingFangHK-Regular-f" transform="translate(633.1875 0)"/>
     <use xlink:href="#PingFangHK-Regular-3" transform="translate(659.59375 0)"/>
     <use xlink:href="#PingFangHK-Regular-16" transform="translate(692.890625 0)"/>
     <use xlink:href="#PingFangHK-Regular-40" transform="translate(752.890625 0)"/>
    </g>
   </g>
   <g id="text_26">
    <!-- LayerNorm：对一个样本，跨特征统计 -->
    <g style="fill: #182e43" transform="translate(369.201875 89.12) scale(0.13 -0.13)">
     <defs>
      <path id="PingFangHK-Semibold-2f" d="M 448 4570 
L 448 0 
L 3661 0 
L 3661 640 
L 1190 640 
L 1190 4570 
L 448 4570 
z
" transform="scale(0.015625)"/>
      <path id="PingFangHK-Semibold-5c" d="M 32 3309 
L 1344 77 
L 762 -1267 
L 1542 -1267 
L 3334 3309 
L 2541 3309 
L 1702 954 
L 826 3309 
L 32 3309 
z
" transform="scale(0.015625)"/>
      <path id="PingFangHK-Semibold-48" d="M 1792 3398 
C 1299 3398 909 3232 627 2893 
C 333 2560 192 2150 192 1658 
C 192 1107 346 678 653 365 
C 941 64 1331 -90 1824 -90 
C 2266 -90 2630 38 2925 288 
C 3155 493 3309 755 3386 1062 
L 2656 1062 
C 2566 877 2470 742 2362 659 
C 2221 557 2042 506 1818 506 
C 1555 506 1350 589 1210 749 
C 1069 909 986 1146 960 1453 
L 3437 1453 
C 3437 2048 3302 2515 3040 2848 
C 2752 3219 2336 3398 1792 3398 
z
M 1811 2803 
C 2323 2803 2611 2541 2675 2003 
L 973 2003 
C 1018 2266 1107 2464 1242 2598 
C 1382 2739 1568 2803 1811 2803 
z
" transform="scale(0.015625)"/>
     </defs>
     <use xlink:href="#PingFangHK-Semibold-2f"/>
     <use xlink:href="#PingFangHK-Semibold-44" transform="translate(59.203125 0)"/>
     <use xlink:href="#PingFangHK-Semibold-5c" transform="translate(116.40625 0)"/>
     <use xlink:href="#PingFangHK-Semibold-48" transform="translate(169 0)"/>
     <use xlink:href="#PingFangHK-Semibold-55" transform="translate(225.703125 0)"/>
     <use xlink:href="#PingFangHK-Semibold-31" transform="translate(263.109375 0)"/>
     <use xlink:href="#PingFangHK-Semibold-52" transform="translate(336.3125 0)"/>
     <use xlink:href="#PingFangHK-Semibold-55" transform="translate(396.3125 0)"/>
     <use xlink:href="#PingFangHK-Semibold-50" transform="translate(433.71875 0)"/>
     <use xlink:href="#PingFangHK-Semibold-7269" transform="translate(522.125 0)"/>
     <use xlink:href="#PingFangHK-Semibold-a52" transform="translate(622.125 0)"/>
     <use xlink:href="#PingFangHK-Semibold-4de" transform="translate(722.125 0)"/>
     <use xlink:href="#PingFangHK-Semibold-4fb" transform="translate(822.125 0)"/>
     <use xlink:href="#PingFangHK-Semibold-ecf" transform="translate(922.125 0)"/>
     <use xlink:href="#PingFangHK-Semibold-e5c" transform="translate(1022.125 0)"/>
     <use xlink:href="#PingFangHK-Semibold-7267" transform="translate(1122.125 0)"/>
     <use xlink:href="#PingFangHK-Semibold-1a9c" transform="translate(1222.125 0)"/>
     <use xlink:href="#PingFangHK-Semibold-11d9" transform="translate(1322.125 0)"/>
     <use xlink:href="#PingFangHK-Semibold-b84" transform="translate(1422.125 0)"/>
     <use xlink:href="#PingFangHK-Semibold-1579" transform="translate(1522.125 0)"/>
     <use xlink:href="#PingFangHK-Semibold-1987" transform="translate(1622.125 0)"/>
    </g>
   </g>
  </g>
  <g id="text_27">
   <!-- 先圈出参与同一次均值 / 方差计算的数 -->
   <g style="fill: #182e43" transform="translate(155.106563 33.48) scale(0.18 -0.18)">
    <defs>
     <path id="PingFangHK-Semibold-636" d="M 1606 3706 
L 2918 3706 
L 2918 2701 
L 365 2701 
L 365 2054 
L 2042 2054 
C 1971 1491 1830 1075 1626 806 
C 1357 467 909 173 282 -77 
L 755 -678 
C 1459 -352 1965 26 2259 461 
C 2496 813 2650 1344 2720 2054 
L 3718 2054 
L 3718 320 
C 3718 -275 3968 -576 4474 -576 
L 5370 -576 
C 5581 -563 5747 -499 5869 -371 
C 5971 -250 6061 186 6125 928 
L 5485 1133 
C 5459 570 5427 256 5376 179 
C 5312 109 5254 70 5197 70 
L 4659 70 
C 4480 70 4397 198 4397 442 
L 4397 2054 
L 6067 2054 
L 6067 2701 
L 3590 2701 
L 3590 3706 
L 5626 3706 
L 5626 4352 
L 3590 4352 
L 3590 5235 
L 2918 5235 
L 2918 4352 
L 1888 4352 
C 1965 4557 2035 4774 2099 4998 
L 1427 5139 
C 1235 4474 909 3840 448 3238 
L 1094 2835 
C 1280 3104 1453 3392 1606 3706 
z
" transform="scale(0.015625)"/>
     <path id="PingFangHK-Semibold-8bb" d="M 1504 3795 
L 1504 3296 
L 2656 3296 
C 2618 3200 2573 3104 2522 3008 
L 1363 3008 
L 1363 2509 
L 2202 2509 
C 1933 2170 1587 1901 1165 1696 
L 1478 1210 
C 1696 1331 1901 1466 2093 1619 
L 2093 742 
C 2093 467 2253 326 2586 326 
L 3866 326 
C 4186 326 4397 365 4512 435 
C 4621 506 4704 723 4762 1094 
L 4230 1261 
C 4198 1075 4160 947 4109 883 
C 4058 832 3917 806 3693 806 
L 2842 806 
C 2726 806 2669 851 2669 928 
L 2669 1824 
L 3578 1824 
L 3578 1664 
C 3578 1549 3507 1485 3379 1485 
C 3264 1485 3117 1498 2950 1510 
L 3072 1075 
C 3245 1062 3424 1056 3616 1056 
C 3962 1075 4134 1222 4134 1504 
L 4134 2016 
C 4346 1760 4621 1510 4954 1280 
L 5267 1670 
L 5267 102 
L 1133 102 
L 1133 4518 
L 5267 4518 
L 5267 1754 
C 4858 1978 4550 2227 4346 2509 
L 5037 2509 
L 5037 3008 
L 3149 3008 
C 3187 3104 3232 3200 3270 3296 
L 4896 3296 
L 4896 3795 
L 4390 3795 
C 4461 3936 4512 4083 4550 4237 
L 4032 4371 
C 3987 4173 3917 3981 3821 3795 
L 3424 3795 
C 3469 3968 3507 4147 3533 4333 
L 2938 4410 
C 2912 4198 2874 3994 2822 3795 
L 2509 3795 
C 2432 4013 2349 4205 2259 4371 
L 1760 4186 
C 1843 4064 1914 3936 1978 3795 
L 1504 3795 
z
M 2688 2234 
C 2752 2323 2816 2413 2880 2509 
L 3802 2509 
C 3846 2419 3904 2330 3974 2234 
L 2688 2234 
z
M 1133 -448 
L 5267 -448 
L 5267 -672 
L 5894 -672 
L 5894 5056 
L 506 5056 
L 506 -672 
L 1133 -672 
L 1133 -448 
z
" transform="scale(0.015625)"/>
     <path id="PingFangHK-Semibold-bfb3" d="M 4819 3098 
L 3546 3098 
L 3546 5261 
L 2854 5261 
L 2854 3098 
L 1581 3098 
L 1581 4781 
L 909 4781 
L 909 2458 
L 2854 2458 
L 2854 307 
L 1261 307 
L 1261 1978 
L 589 1978 
L 589 -621 
L 1261 -621 
L 1261 -339 
L 5139 -339 
L 5139 -621 
L 5811 -621 
L 5811 1978 
L 5139 1978 
L 5139 307 
L 3546 307 
L 3546 2458 
L 5491 2458 
L 5491 4781 
L 4819 4781 
L 4819 3098 
z
" transform="scale(0.015625)"/>
     <path id="PingFangHK-Semibold-747" d="M 358 3398 
L 358 2797 
L 1862 2797 
C 1446 2502 902 2259 230 2074 
L 531 1478 
C 1491 1824 2227 2266 2746 2797 
L 3866 2797 
C 4282 2266 4954 1830 5875 1498 
L 6163 2106 
C 5498 2278 4979 2509 4608 2797 
L 6022 2797 
L 6022 3398 
L 3206 3398 
C 3283 3526 3347 3661 3405 3802 
C 3853 3827 4294 3846 4717 3872 
C 4851 3744 4973 3616 5088 3488 
L 5645 3872 
C 5312 4218 4832 4627 4211 5094 
L 3699 4768 
C 3853 4646 3994 4525 4134 4403 
C 3501 4365 2854 4333 2202 4307 
C 2522 4538 2835 4800 3142 5094 
L 2483 5318 
C 1805 4678 1286 4339 934 4301 
L 1030 3725 
C 1613 3738 2176 3757 2714 3776 
C 2650 3648 2579 3520 2490 3398 
L 358 3398 
z
M 3142 2707 
C 2765 2259 2170 1901 1357 1632 
L 1651 1114 
C 2560 1434 3226 1856 3661 2394 
L 3142 2707 
z
M 4800 1709 
C 4275 806 3059 160 1146 -237 
L 1530 -762 
C 3507 -346 4794 390 5382 1440 
L 4800 1709 
z
M 3955 2170 
C 3315 1408 2406 934 1222 742 
L 1594 237 
C 2726 442 3686 966 4474 1824 
L 3955 2170 
z
" transform="scale(0.015625)"/>
     <path id="PingFangHK-Semibold-728c" d="M 5350 2970 
L 1894 2970 
L 1894 3821 
L 5677 3821 
L 5677 4461 
L 1894 4461 
L 1894 5178 
L 1216 5178 
L 1216 2355 
L 4666 2355 
C 4666 1267 4589 602 4448 371 
C 4307 141 4051 26 3680 26 
C 3302 26 2918 38 2534 58 
L 2707 -576 
C 3091 -595 3450 -608 3789 -608 
C 4410 -582 4819 -397 5018 -58 
C 5210 282 5318 1293 5350 2970 
z
M 301 1517 
L 301 877 
L 3910 877 
L 3910 1517 
L 301 1517 
z
" transform="scale(0.015625)"/>
     <path id="PingFangHK-Semibold-776" d="M 5197 -646 
C 5632 -646 5850 -390 5850 109 
L 5850 5062 
L 550 5062 
L 550 -666 
L 1222 -666 
L 1222 4410 
L 5178 4410 
L 5178 262 
C 5178 83 5107 -6 4979 -6 
L 4179 26 
L 4365 -646 
L 5197 -646 
z
M 1574 3859 
L 1574 3238 
L 4826 3238 
L 4826 3859 
L 1574 3859 
z
M 1894 2707 
L 1894 525 
L 4512 525 
L 4512 2707 
L 1894 2707 
z
M 3866 1120 
L 2541 1120 
L 2541 2112 
L 3866 2112 
L 3866 1120 
z
" transform="scale(0.015625)"/>
     <path id="PingFangHK-Semibold-f7a" d="M 3162 3712 
L 5267 3712 
C 5139 3251 4986 2848 4806 2502 
L 5466 2317 
C 5683 2848 5856 3379 5990 3917 
L 5990 4358 
L 3341 4358 
C 3398 4614 3450 4896 3494 5190 
L 2829 5299 
C 2682 4179 2355 3309 1850 2682 
L 2406 2291 
C 2714 2637 2963 3110 3162 3712 
z
M 3648 3354 
C 3635 2547 3533 1882 3341 1370 
C 3078 768 2528 262 1690 -160 
L 2131 -698 
C 3104 -198 3718 435 3974 1190 
L 4051 1421 
C 4448 595 5024 -109 5773 -685 
L 6214 -173 
C 5267 467 4608 1325 4250 2413 
C 4282 2707 4301 3021 4301 3354 
L 3648 3354 
z
M 800 5024 
L 262 4685 
C 723 4192 1094 3738 1370 3328 
L 1894 3693 
C 1638 4077 1274 4518 800 5024 
z
M 1338 2259 
C 1018 1421 634 602 198 -198 
L 819 -480 
C 1229 301 1594 1139 1926 2035 
L 1338 2259 
z
" transform="scale(0.015625)"/>
     <path id="PingFangHK-Semibold-7482" d="M 269 3629 
L 269 2976 
L 902 2976 
L 902 928 
C 666 877 422 832 179 794 
L 358 83 
C 1075 237 1754 429 2381 653 
L 2381 1357 
C 2112 1261 1843 1171 1574 1094 
L 1574 2976 
L 2163 2976 
L 2163 3629 
L 1574 3629 
L 1574 5229 
L 902 5229 
L 902 3629 
L 269 3629 
z
M 3040 2842 
L 3040 2266 
L 4979 2266 
L 4979 2842 
L 3040 2842 
z
M 2963 1638 
L 2963 1069 
L 5075 1069 
L 5075 1638 
L 2963 1638 
z
M 3283 5312 
C 3098 4429 2739 3680 2214 3066 
L 2662 2483 
C 2970 2842 3238 3251 3456 3699 
L 5318 3699 
C 5306 1856 5286 781 5254 474 
C 5216 166 5082 6 4851 6 
C 4557 6 4211 19 3814 38 
L 3981 -595 
C 4442 -621 4774 -634 4966 -634 
C 5510 -634 5818 -371 5882 154 
C 5939 685 5971 2080 5971 4346 
L 3718 4346 
C 3808 4627 3891 4922 3955 5229 
L 3283 5312 
z
" transform="scale(0.015625)"/>
     <path id="PingFangHK-Semibold-a9ca" d="M 3840 5293 
C 3827 5107 3808 4915 3795 4717 
L 2182 4717 
L 2182 4115 
L 3731 4115 
L 3674 3731 
L 2534 3731 
L 2534 115 
L 1907 115 
L 1907 -499 
L 6150 -499 
L 6150 115 
L 5574 115 
L 5574 3731 
L 4339 3731 
L 4397 4115 
L 5965 4115 
L 5965 4717 
L 4467 4717 
L 4506 5203 
L 3840 5293 
z
M 3168 115 
L 3168 486 
L 4941 486 
L 4941 115 
L 3168 115 
z
M 3168 1011 
L 3168 1370 
L 4941 1370 
L 4941 1011 
L 3168 1011 
z
M 3168 1894 
L 3168 2253 
L 4941 2253 
L 4941 1894 
L 3168 1894 
z
M 3168 2778 
L 3168 3130 
L 4941 3130 
L 4941 2778 
L 3168 2778 
z
M 1043 2752 
L 1043 -678 
L 1696 -678 
L 1696 3859 
C 1869 4224 2016 4608 2138 5005 
L 1536 5286 
C 1261 4314 832 3469 256 2752 
L 474 2035 
C 678 2266 864 2509 1043 2752 
z
" transform="scale(0.015625)"/>
     <path id="PingFangHK-Semibold-3" transform="scale(0.015625)"/>
     <path id="PingFangHK-Semibold-12" d="M 2400 5248 
L 173 -640 
L 806 -640 
L 3027 5248 
L 2400 5248 
z
" transform="scale(0.015625)"/>
     <path id="PingFangHK-Semibold-ddc" d="M 352 4378 
L 352 3731 
L 2093 3731 
C 2086 3533 2074 3277 2061 2957 
C 2029 2355 1907 1811 1696 1331 
C 1478 851 1030 326 352 -237 
L 838 -710 
C 1408 -250 1850 262 2163 819 
C 2387 1222 2541 1664 2630 2150 
L 4666 2150 
C 4653 1267 4634 730 4595 531 
C 4518 173 4358 -13 4109 -26 
C 3872 -26 3584 -13 3245 6 
L 3443 -602 
C 3725 -621 3968 -634 4179 -634 
C 4678 -621 5005 -371 5152 128 
C 5254 474 5318 1363 5344 2784 
L 2707 2784 
C 2733 3174 2746 3488 2758 3731 
L 6074 3731 
L 6074 4378 
L 3712 4378 
C 3571 4730 3411 5037 3245 5293 
L 2611 5056 
C 2771 4838 2906 4614 3021 4378 
L 352 4378 
z
" transform="scale(0.015625)"/>
     <path id="PingFangHK-Semibold-7669" d="M 595 4627 
L 595 4006 
L 2867 4006 
L 2867 3635 
L 973 3635 
L 973 3021 
L 2867 3021 
L 2867 2656 
L 410 2656 
L 410 2029 
L 1734 2029 
C 1434 1376 922 890 192 576 
L 634 58 
C 1190 339 1638 723 1971 1216 
L 1971 915 
L 3232 915 
L 3232 115 
L 1037 115 
L 1037 -531 
L 6010 -531 
L 6010 115 
L 3904 115 
L 3904 915 
L 5613 915 
L 5613 1555 
L 2176 1555 
C 2253 1702 2323 1862 2387 2029 
L 6016 2029 
L 6016 2656 
L 3546 2656 
L 3546 3021 
L 5478 3021 
L 5478 3635 
L 3546 3635 
L 3546 4006 
L 5830 4006 
L 5830 4627 
L 4550 4627 
C 4653 4806 4730 5005 4794 5210 
L 4090 5306 
C 4038 5075 3962 4845 3866 4627 
L 2611 4627 
C 2534 4870 2464 5094 2387 5286 
L 1690 5171 
C 1779 5005 1856 4819 1933 4627 
L 595 4627 
z
" transform="scale(0.015625)"/>
     <path id="PingFangHK-Semibold-14d2" d="M 1056 3834 
L 1056 1197 
L 1843 1197 
L 1843 1018 
C 1843 979 1837 941 1830 896 
L 339 896 
L 339 320 
L 1613 320 
C 1606 307 1600 301 1594 288 
C 1440 115 1139 -32 698 -154 
L 1037 -685 
C 1536 -544 1901 -346 2125 -90 
C 2221 26 2304 166 2368 320 
L 4026 320 
L 4026 -678 
L 4685 -678 
L 4685 320 
L 6061 320 
L 6061 896 
L 4685 896 
L 4685 1197 
L 5421 1197 
L 5421 3834 
L 3674 3834 
C 3802 3987 3917 4160 4026 4339 
L 4416 4339 
C 4531 4179 4634 4013 4723 3840 
L 5261 4045 
C 5210 4134 5146 4237 5075 4339 
L 5978 4339 
L 5978 4902 
L 4294 4902 
C 4326 4986 4358 5069 4390 5158 
L 3750 5299 
C 3622 4890 3398 4499 3085 4134 
L 3552 3834 
L 1056 3834 
z
M 2509 1197 
L 4026 1197 
L 4026 896 
L 2502 896 
C 2502 934 2509 979 2509 1018 
L 2509 1197 
z
M 4768 1696 
L 1709 1696 
L 1709 1952 
L 4768 1952 
L 4768 1696 
z
M 1709 2406 
L 1709 2637 
L 4768 2637 
L 4768 2406 
L 1709 2406 
z
M 1709 3091 
L 1709 3328 
L 4768 3328 
L 4768 3091 
L 1709 3091 
z
M 1382 4307 
L 1798 4307 
C 1907 4160 2003 4006 2086 3846 
L 2630 4051 
C 2579 4134 2522 4218 2458 4307 
L 3117 4307 
L 3117 4870 
L 1670 4870 
C 1709 4966 1754 5069 1792 5171 
L 1158 5312 
C 998 4845 730 4410 346 4000 
L 896 3648 
C 1075 3853 1235 4070 1382 4307 
z
" transform="scale(0.015625)"/>
     <path id="PingFangHK-Semibold-1331" d="M 2669 4218 
L 1696 4218 
C 1811 4512 1907 4838 1978 5184 
L 1306 5274 
C 1254 4909 1171 4557 1056 4218 
L 442 4218 
L 442 -454 
L 1082 -454 
L 1082 51 
L 2029 51 
L 2029 -269 
L 2669 -269 
L 2669 4218 
z
M 1082 666 
L 1082 1875 
L 2029 1875 
L 2029 666 
L 1082 666 
z
M 1082 2470 
L 1082 3590 
L 2029 3590 
L 2029 2470 
L 1082 2470 
z
M 3834 2662 
L 3290 2323 
C 3686 1811 4006 1344 4243 922 
L 4781 1293 
C 4557 1690 4243 2144 3834 2662 
z
M 5965 4218 
L 4019 4218 
C 4115 4525 4198 4851 4262 5197 
L 3603 5280 
C 3450 4403 3168 3661 2746 3059 
L 3149 2528 
C 3386 2835 3590 3181 3763 3565 
L 5312 3565 
C 5299 1754 5280 698 5242 390 
C 5203 141 5069 13 4838 13 
C 4627 13 4378 26 4096 45 
L 4256 -563 
C 4589 -589 4819 -602 4947 -602 
C 5498 -602 5805 -378 5869 70 
C 5933 595 5965 1978 5965 4218 
z
" transform="scale(0.015625)"/>
     <path id="PingFangHK-Semibold-ac17" d="M 4250 3706 
L 5075 3706 
C 5043 2976 4928 2323 4730 1760 
C 4550 2125 4397 2515 4282 2931 
L 3878 2707 
C 4019 3002 4141 3334 4250 3706 
z
M 4403 1037 
C 4128 563 3763 173 3315 -128 
L 3661 -691 
C 4096 -378 4467 6 4762 454 
C 5043 45 5382 -339 5766 -685 
L 6195 -186 
C 5773 186 5414 608 5107 1082 
C 5446 1811 5638 2688 5677 3706 
L 6074 3706 
L 6074 4352 
L 4410 4352 
C 4461 4608 4506 4870 4544 5146 
L 3904 5261 
C 3776 4160 3520 3283 3142 2630 
L 3552 2131 
C 3629 2246 3712 2381 3789 2534 
C 3942 2003 4147 1504 4403 1037 
z
M 1408 2291 
C 1370 2176 1325 2061 1280 1933 
L 390 1933 
L 390 1363 
L 1024 1363 
C 909 1133 774 883 621 627 
C 909 518 1178 410 1434 301 
C 1101 141 698 6 237 -96 
L 544 -653 
C 1178 -486 1702 -275 2125 -6 
C 2470 -166 2765 -320 3008 -467 
L 3366 58 
C 3130 186 2886 301 2643 410 
C 2925 698 3117 1024 3219 1395 
L 3219 1933 
L 1933 1933 
C 1965 2022 1997 2118 2035 2214 
L 1408 2291 
z
M 2035 666 
C 1830 742 1626 819 1421 890 
C 1510 1043 1600 1197 1683 1363 
L 2630 1363 
C 2502 1107 2304 870 2035 666 
z
M 1018 5171 
L 499 4998 
C 640 4762 774 4493 902 4186 
L 1382 4403 
C 1274 4678 1152 4934 1018 5171 
z
M 2803 5210 
C 2694 4954 2547 4698 2362 4429 
L 2829 4192 
C 3014 4448 3168 4704 3290 4973 
L 2803 5210 
z
M 403 4090 
L 403 3507 
L 1171 3507 
C 979 3226 666 2970 243 2733 
L 576 2195 
C 1037 2528 1376 2906 1594 3334 
L 1594 2336 
L 2208 2336 
L 2208 2995 
C 2381 2854 2586 2669 2822 2445 
L 3162 2963 
C 2842 3155 2522 3334 2208 3494 
L 2208 3507 
L 3296 3507 
L 3296 4090 
L 2208 4090 
L 2208 5248 
L 1594 5248 
L 1594 4090 
L 403 4090 
z
" transform="scale(0.015625)"/>
    </defs>
    <use xlink:href="#PingFangHK-Semibold-636"/>
    <use xlink:href="#PingFangHK-Semibold-8bb" transform="translate(100 0)"/>
    <use xlink:href="#PingFangHK-Semibold-bfb3" transform="translate(200 0)"/>
    <use xlink:href="#PingFangHK-Semibold-747" transform="translate(300 0)"/>
    <use xlink:href="#PingFangHK-Semibold-728c" transform="translate(400 0)"/>
    <use xlink:href="#PingFangHK-Semibold-776" transform="translate(500 0)"/>
    <use xlink:href="#PingFangHK-Semibold-4de" transform="translate(600 0)"/>
    <use xlink:href="#PingFangHK-Semibold-f7a" transform="translate(700 0)"/>
    <use xlink:href="#PingFangHK-Semibold-7482" transform="translate(800 0)"/>
    <use xlink:href="#PingFangHK-Semibold-a9ca" transform="translate(900 0)"/>
    <use xlink:href="#PingFangHK-Semibold-3" transform="translate(1000 0)"/>
    <use xlink:href="#PingFangHK-Semibold-12" transform="translate(1033.296875 0)"/>
    <use xlink:href="#PingFangHK-Semibold-3" transform="translate(1083.296875 0)"/>
    <use xlink:href="#PingFangHK-Semibold-ddc" transform="translate(1116.59375 0)"/>
    <use xlink:href="#PingFangHK-Semibold-7669" transform="translate(1216.59375 0)"/>
    <use xlink:href="#PingFangHK-Semibold-1987" transform="translate(1316.59375 0)"/>
    <use xlink:href="#PingFangHK-Semibold-14d2" transform="translate(1416.59375 0)"/>
    <use xlink:href="#PingFangHK-Semibold-1331" transform="translate(1516.59375 0)"/>
    <use xlink:href="#PingFangHK-Semibold-ac17" transform="translate(1616.59375 0)"/>
   </g>
  </g>
  <g id="text_28">
   <!-- 示例是 N × D 特征表；CNN 的 BN 通常对每个通道跨 N、H、W 统计。 -->
   <g style="fill: #182e43" transform="translate(133.831172 400.14) scale(0.11 -0.11)">
    <defs>
     <path id="PingFangHK-Regular-140f" d="M 2861 -563 
C 3258 -563 3456 -365 3456 19 
L 3456 2797 
L 5926 2797 
L 5926 3251 
L 474 3251 
L 474 2797 
L 2989 2797 
L 2989 134 
C 2989 -45 2893 -141 2701 -141 
C 2458 -141 2208 -128 1939 -115 
L 2035 -563 
L 2861 -563 
z
M 1459 2093 
C 1235 1312 877 602 384 -38 
L 787 -288 
C 1274 352 1645 1114 1914 1997 
L 1459 2093 
z
M 4838 2157 
L 4422 2016 
C 4832 1363 5210 614 5555 -237 
L 5978 -45 
C 5658 736 5274 1466 4838 2157 
z
M 1062 4877 
L 1062 4429 
L 5357 4429 
L 5357 4877 
L 1062 4877 
z
" transform="scale(0.015625)"/>
     <path id="PingFangHK-Regular-5ba" d="M 2016 4858 
L 2016 4416 
L 2515 4416 
C 2413 3283 2112 2387 1613 1734 
L 1843 1286 
C 1990 1472 2125 1677 2253 1901 
C 2515 1734 2784 1523 3053 1261 
C 2758 634 2355 141 1843 -211 
L 2074 -621 
C 3123 96 3770 1338 4000 3110 
L 4000 3507 
L 2822 3507 
C 2880 3795 2925 4096 2957 4416 
L 4122 4416 
L 4122 4858 
L 2016 4858 
z
M 2438 2278 
C 2547 2528 2643 2797 2720 3085 
L 3571 3085 
C 3494 2586 3386 2118 3232 1696 
C 2982 1914 2720 2112 2438 2278 
z
M 5286 -595 
C 5670 -595 5869 -397 5869 -13 
L 5869 5210 
L 5408 5210 
L 5408 102 
C 5408 -90 5312 -186 5126 -186 
C 4922 -186 4710 -173 4480 -154 
L 4582 -595 
L 5286 -595 
z
M 877 2829 
L 877 -653 
L 1338 -653 
L 1338 3635 
C 1555 4083 1741 4557 1882 5062 
L 1446 5261 
C 1190 4269 781 3392 218 2624 
L 371 2138 
C 550 2355 717 2586 877 2829 
z
M 4397 4621 
L 4397 653 
L 4819 653 
L 4819 4621 
L 4397 4621 
z
" transform="scale(0.015625)"/>
     <path id="PingFangHK-Regular-e0e" d="M 1280 5011 
L 1280 2790 
L 5171 2790 
L 5171 5011 
L 1280 5011 
z
M 4717 3181 
L 1734 3181 
L 1734 3706 
L 4717 3706 
L 4717 3181 
z
M 1734 4083 
L 1734 4614 
L 4717 4614 
L 4717 4083 
L 1734 4083 
z
M 3040 1894 
L 3040 -19 
C 2906 6 2790 38 2688 70 
C 2355 192 2048 474 1779 922 
C 1862 1133 1933 1357 1997 1594 
L 1562 1670 
C 1350 870 947 230 358 -243 
L 659 -621 
C 1043 -307 1363 83 1613 557 
C 1869 134 2163 -147 2490 -294 
C 2867 -454 3584 -538 4640 -538 
C 5005 -544 5414 -550 5875 -550 
L 6003 -115 
C 5626 -128 5158 -134 4608 -134 
C 4186 -134 3814 -115 3507 -90 
L 3507 762 
L 5350 762 
L 5350 1171 
L 3507 1171 
L 3507 1894 
L 6035 1894 
L 6035 2317 
L 371 2317 
L 371 1894 
L 3040 1894 
z
" transform="scale(0.015625)"/>
     <path id="PingFangHK-Regular-31" d="M 461 4570 
L 461 0 
L 986 0 
L 986 3757 
L 1005 3757 
L 3603 0 
L 4141 0 
L 4141 4570 
L 3616 4570 
L 3616 851 
L 3597 851 
L 1011 4570 
L 461 4570 
z
" transform="scale(0.015625)"/>
     <path id="PingFangHK-Regular-9a" d="M 672 3226 
L 365 2918 
L 1638 1658 
L 365 390 
L 672 83 
L 1939 1350 
L 3200 83 
L 3507 390 
L 2240 1658 
L 3507 2918 
L 3200 3226 
L 1939 1958 
L 672 3226 
z
" transform="scale(0.015625)"/>
     <path id="PingFangHK-Regular-27" d="M 461 4570 
L 461 0 
L 2048 0 
C 2765 0 3315 211 3699 627 
C 4064 1024 4250 1581 4250 2285 
C 4250 3002 4077 3558 3738 3942 
C 3366 4365 2822 4570 2099 4570 
L 461 4570 
z
M 986 4115 
L 2016 4115 
C 2618 4115 3053 3962 3334 3648 
C 3597 3354 3731 2899 3731 2285 
C 3731 1690 3584 1235 3302 928 
C 3002 614 2554 454 1958 454 
L 986 454 
L 986 4115 
z
" transform="scale(0.015625)"/>
     <path id="PingFangHK-Regular-852d" d="M 653 4672 
L 653 4250 
L 2963 4250 
L 2963 3642 
L 1024 3642 
L 1024 3219 
L 2963 3219 
L 2963 2598 
L 493 2598 
L 493 2182 
L 2496 2182 
C 2022 1632 1280 1184 256 826 
L 506 422 
C 934 602 1318 794 1664 998 
L 1664 -58 
C 1664 -134 1619 -192 1530 -230 
L 1683 -627 
C 2349 -461 2995 -243 3635 26 
L 3546 454 
C 3072 250 2598 77 2118 -70 
L 2118 1306 
C 2464 1574 2752 1862 2976 2182 
L 5907 2182 
L 5907 2598 
L 3437 2598 
L 3437 3219 
L 5376 3219 
L 5376 3642 
L 3437 3642 
L 3437 4250 
L 5747 4250 
L 5747 4672 
L 3437 4672 
L 3437 5216 
L 2963 5216 
L 2963 4672 
L 653 4672 
z
M 5331 1856 
C 4986 1485 4621 1216 4237 1050 
C 4045 1293 3885 1574 3757 1882 
L 3405 1683 
C 3885 557 4698 -211 5843 -627 
L 6118 -230 
C 5466 -13 4922 320 4499 755 
C 4922 934 5306 1197 5645 1542 
L 5331 1856 
z
" transform="scale(0.015625)"/>
     <path id="PingFangHK-Regular-726a" d="M 3200 3898 
C 3085 3898 2989 3859 2918 3782 
C 2842 3712 2810 3616 2810 3501 
C 2810 3386 2842 3296 2918 3219 
C 2989 3149 3085 3110 3200 3110 
C 3315 3110 3405 3149 3482 3219 
C 3558 3296 3597 3386 3597 3501 
C 3597 3616 3558 3712 3482 3782 
C 3405 3859 3315 3898 3200 3898 
z
M 3206 1536 
C 3078 1536 2976 1504 2899 1427 
C 2822 1357 2790 1261 2790 1139 
C 2790 1030 2829 934 2906 858 
C 2976 787 3066 749 3174 749 
C 3238 749 3290 755 3315 768 
C 3315 614 3264 474 3174 346 
C 3072 211 2938 115 2771 64 
L 2771 -256 
C 3040 -179 3264 -38 3430 166 
C 3597 378 3680 627 3680 909 
C 3680 1101 3635 1248 3552 1357 
C 3462 1478 3347 1536 3206 1536 
z
" transform="scale(0.015625)"/>
     <path id="PingFangHK-Regular-26" d="M 2432 4659 
C 1728 4659 1178 4422 794 3936 
C 442 3501 269 2944 269 2266 
C 269 1587 435 1037 781 614 
C 1158 147 1702 -90 2413 -90 
C 2899 -90 3322 51 3674 326 
C 4051 621 4288 1037 4390 1568 
L 3885 1568 
C 3795 1171 3610 870 3341 666 
C 3085 474 2778 378 2413 378 
C 1875 378 1472 557 1190 909 
C 922 1242 794 1696 794 2266 
C 794 2835 928 3290 1197 3635 
C 1485 4006 1894 4192 2426 4192 
C 2784 4192 3085 4109 3334 3936 
C 3590 3757 3757 3501 3821 3168 
L 4326 3168 
C 4262 3622 4058 3987 3712 4256 
C 3366 4525 2938 4659 2432 4659 
z
" transform="scale(0.015625)"/>
     <path id="PingFangHK-Regular-1331" d="M 2586 4122 
L 1555 4122 
C 1683 4442 1779 4794 1856 5171 
L 1395 5235 
C 1338 4851 1248 4480 1120 4122 
L 525 4122 
L 525 -429 
L 973 -429 
L 973 122 
L 2138 122 
L 2138 -243 
L 2586 -243 
L 2586 4122 
z
M 973 550 
L 973 1952 
L 2138 1952 
L 2138 550 
L 973 550 
z
M 973 2368 
L 973 3686 
L 2138 3686 
L 2138 2368 
L 973 2368 
z
M 3699 2637 
L 3328 2406 
C 3770 1882 4122 1408 4384 986 
L 4749 1242 
C 4506 1638 4160 2106 3699 2637 
z
M 5894 4115 
L 3853 4115 
C 3968 4448 4058 4806 4134 5184 
L 3680 5242 
C 3514 4333 3213 3565 2765 2938 
L 3040 2573 
C 3290 2899 3501 3264 3680 3667 
L 5440 3667 
C 5427 1824 5402 717 5363 358 
C 5312 32 5139 -134 4838 -134 
C 4640 -134 4410 -128 4141 -115 
L 4250 -538 
C 4557 -550 4774 -563 4902 -563 
C 5440 -563 5734 -314 5798 173 
C 5862 672 5894 1990 5894 4115 
z
" transform="scale(0.015625)"/>
     <path id="PingFangHK-Regular-25" d="M 461 4570 
L 461 0 
L 2490 0 
C 2957 0 3328 96 3597 275 
C 3910 493 4070 826 4070 1274 
C 4070 1581 3981 1824 3814 2016 
C 3648 2208 3418 2336 3117 2387 
C 3347 2464 3533 2586 3674 2752 
C 3808 2938 3878 3162 3878 3418 
C 3878 3776 3757 4058 3514 4262 
C 3264 4467 2925 4570 2502 4570 
L 461 4570 
z
M 986 4128 
L 2381 4128 
C 2701 4128 2944 4070 3110 3942 
C 3277 3814 3360 3622 3360 3366 
C 3360 3104 3270 2906 3104 2771 
C 2938 2643 2694 2573 2374 2573 
L 986 2573 
L 986 4128 
z
M 986 2138 
L 2445 2138 
C 2797 2138 3066 2074 3251 1933 
C 3443 1792 3546 1574 3546 1280 
C 3546 986 3430 762 3206 621 
C 3014 506 2765 442 2445 442 
L 986 442 
L 986 2138 
z
" transform="scale(0.015625)"/>
     <path id="PingFangHK-Regular-8762" d="M 3360 4531 
L 3072 4262 
C 3386 4083 3661 3904 3904 3731 
L 2387 3731 
L 2387 301 
L 2822 301 
L 2822 1408 
L 3859 1408 
L 3859 307 
L 4282 307 
L 4282 1408 
L 5344 1408 
L 5344 941 
C 5344 787 5274 704 5139 704 
L 4627 723 
L 4730 333 
L 5267 333 
C 5606 333 5779 506 5779 851 
L 5779 3731 
L 4474 3731 
C 4454 3750 4429 3770 4397 3795 
C 4858 4038 5274 4333 5658 4678 
L 5658 5005 
L 2234 5005 
L 2234 4621 
L 5050 4621 
C 4768 4397 4454 4198 4115 4026 
C 3898 4192 3642 4358 3360 4531 
z
M 2822 2362 
L 3859 2362 
L 3859 1792 
L 2822 1792 
L 2822 2362 
z
M 4282 2362 
L 5344 2362 
L 5344 1792 
L 4282 1792 
L 4282 2362 
z
M 5344 2746 
L 4282 2746 
L 4282 3347 
L 5344 3347 
L 5344 2746 
z
M 3859 2746 
L 2822 2746 
L 2822 3347 
L 3859 3347 
L 3859 2746 
z
M 851 5165 
L 544 4870 
C 960 4538 1286 4230 1523 3942 
L 1824 4243 
C 1562 4550 1235 4858 851 5165 
z
M 358 3629 
L 358 3206 
L 1325 3206 
C 1094 2848 813 2490 480 2125 
L 480 1773 
L 1459 1773 
C 1376 1357 1267 979 1133 646 
C 864 570 576 250 275 -326 
L 614 -627 
C 902 -64 1126 218 1280 218 
C 1331 218 1389 198 1440 154 
C 1664 -64 1907 -230 2176 -333 
C 2413 -429 2752 -480 3200 -493 
C 3578 -506 4013 -512 4506 -512 
L 6029 -512 
L 6131 -70 
C 5440 -96 4883 -109 4448 -109 
C 3987 -109 3584 -102 3232 -102 
C 2854 -90 2560 -45 2342 32 
C 2131 128 1926 269 1722 454 
C 1664 506 1606 550 1555 582 
C 1690 922 1805 1344 1894 1856 
L 1894 2163 
L 1030 2163 
C 1338 2522 1606 2886 1837 3264 
L 1837 3629 
L 358 3629 
z
" transform="scale(0.015625)"/>
     <path id="PingFangHK-Regular-b09" d="M 2963 1946 
L 2963 1434 
L 960 1434 
L 960 -346 
L 1414 -346 
L 1414 1011 
L 2963 1011 
L 2963 -653 
L 3437 -653 
L 3437 1011 
L 5018 1011 
L 5018 371 
C 5018 205 4922 115 4742 115 
L 4256 134 
L 4378 -307 
L 4890 -307 
C 5274 -307 5472 -115 5472 269 
L 5472 1434 
L 3437 1434 
L 3437 1946 
L 4858 1946 
L 4858 3354 
L 1555 3354 
L 1555 1946 
L 2963 1946 
z
M 2963 5261 
L 2963 4282 
L 2035 4282 
C 1901 4608 1747 4890 1581 5126 
L 1146 4966 
C 1312 4755 1459 4525 1581 4282 
L 538 4282 
L 538 2982 
L 1011 2982 
L 1011 3846 
L 5389 3846 
L 5389 2989 
L 5862 2989 
L 5862 4282 
L 4736 4282 
C 4890 4486 5043 4730 5190 5011 
L 4762 5171 
C 4621 4858 4448 4563 4250 4282 
L 3437 4282 
L 3437 5261 
L 2963 5261 
z
M 4416 2336 
L 2003 2336 
L 2003 2963 
L 4416 2963 
L 4416 2336 
z
" transform="scale(0.015625)"/>
     <path id="PingFangHK-Regular-a52" d="M 3053 3987 
L 3053 3546 
L 4909 3546 
L 4909 141 
C 4909 -83 4787 -198 4550 -198 
C 4256 -198 3942 -186 3610 -166 
L 3706 -621 
L 4710 -621 
C 5146 -621 5370 -403 5370 26 
L 5370 3546 
L 6080 3546 
L 6080 3987 
L 5370 3987 
L 5370 5242 
L 4909 5242 
L 4909 3987 
L 3053 3987 
z
M 762 3571 
L 454 3283 
C 902 2784 1312 2291 1670 1811 
C 1338 1184 870 640 269 179 
L 538 -224 
C 1126 262 1600 813 1952 1427 
C 2182 1101 2394 781 2586 461 
L 2918 794 
C 2694 1152 2445 1517 2176 1875 
C 2509 2586 2688 3379 2720 4250 
L 2720 4589 
L 550 4589 
L 550 4141 
L 2304 4141 
C 2259 3462 2118 2835 1882 2259 
C 1536 2694 1165 3136 762 3571 
z
M 3398 2790 
L 3046 2534 
C 3443 2042 3770 1574 4026 1133 
L 4390 1389 
C 4160 1798 3827 2266 3398 2790 
z
" transform="scale(0.015625)"/>
     <path id="PingFangHK-Regular-faf" d="M 1664 4237 
L 5856 4237 
L 5856 4678 
L 1914 4678 
C 1990 4832 2067 4998 2144 5165 
L 1677 5274 
C 1325 4467 877 3821 326 3322 
L 621 2963 
C 1018 3322 1363 3750 1664 4237 
z
M 2694 1670 
L 2483 1370 
C 2918 1216 3347 1005 3770 736 
L 3987 1069 
C 3597 1306 3168 1504 2694 1670 
z
M 1062 275 
L 4800 275 
C 4787 186 4781 122 4768 96 
C 4710 -45 4621 -141 4506 -186 
C 4390 -218 4256 -237 4102 -237 
C 3859 -237 3584 -224 3277 -211 
L 3418 -640 
C 3699 -640 3955 -634 4173 -634 
C 4480 -634 4717 -589 4870 -499 
C 5037 -397 5146 -250 5203 -51 
C 5216 0 5235 109 5248 275 
L 5984 275 
L 5984 704 
L 5280 704 
C 5293 986 5312 1350 5331 1798 
L 6157 1798 
L 6157 2234 
L 5350 2234 
L 5395 3706 
L 1421 3706 
C 1408 3213 1382 2720 1338 2234 
L 256 2234 
L 256 1798 
L 1293 1798 
C 1235 1286 1158 774 1062 275 
z
M 4838 704 
L 1594 704 
C 1658 1037 1709 1402 1754 1798 
L 4890 1798 
C 4870 1350 4851 986 4838 704 
z
M 1798 2234 
C 1824 2560 1843 2906 1856 3277 
L 4934 3277 
C 4922 2899 4915 2554 4902 2234 
L 3814 2234 
L 4026 2554 
C 3642 2790 3213 2989 2746 3155 
L 2534 2848 
C 2957 2694 3379 2490 3789 2234 
L 1798 2234 
z
" transform="scale(0.015625)"/>
     <path id="PingFangHK-Regular-4fb" d="M 2963 3334 
L 2963 -634 
L 3437 -634 
L 3437 3334 
L 2963 3334 
z
M 2995 5222 
C 2349 4262 1427 3475 230 2867 
L 506 2451 
C 1594 3002 2490 3782 3200 4794 
C 3789 3872 4691 3104 5894 2477 
L 6170 2893 
C 4864 3565 3942 4339 3405 5222 
L 2995 5222 
z
" transform="scale(0.015625)"/>
     <path id="PingFangHK-Regular-8787" d="M 2112 4486 
L 2112 4070 
L 3731 4070 
C 3693 3898 3635 3725 3558 3558 
L 2618 3558 
L 2618 429 
L 5568 429 
L 5568 3558 
L 4045 3558 
C 4115 3725 4173 3891 4224 4070 
L 6048 4070 
L 6048 4486 
L 4947 4486 
C 5094 4672 5229 4883 5350 5114 
L 4915 5261 
C 4781 4992 4627 4730 4448 4486 
L 3642 4486 
C 3507 4774 3360 5024 3200 5235 
L 2771 5075 
C 2931 4890 3066 4691 3174 4486 
L 2112 4486 
z
M 5139 832 
L 3046 832 
L 3046 1370 
L 5139 1370 
L 5139 832 
z
M 3046 1734 
L 3046 2259 
L 5139 2259 
L 5139 1734 
L 3046 1734 
z
M 3046 2624 
L 3046 3149 
L 5139 3149 
L 5139 2624 
L 3046 2624 
z
M 819 5165 
L 518 4877 
C 934 4544 1261 4237 1504 3949 
L 1805 4250 
C 1536 4557 1203 4858 819 5165 
z
M 358 3629 
L 358 3206 
L 1318 3206 
C 1101 2848 826 2490 506 2125 
L 506 1773 
L 1472 1773 
C 1389 1350 1280 979 1139 653 
C 864 576 576 250 275 -326 
L 614 -627 
C 909 -58 1133 224 1293 224 
C 1344 224 1402 205 1453 160 
C 1670 -70 1920 -237 2189 -352 
C 2419 -448 2758 -506 3206 -518 
C 3584 -531 4019 -538 4512 -538 
L 6029 -538 
L 6131 -96 
C 5440 -115 4883 -128 4454 -128 
C 3994 -128 3590 -122 3232 -122 
C 2861 -115 2566 -70 2355 13 
C 2138 109 1933 256 1728 448 
C 1670 499 1613 544 1562 582 
C 1702 928 1818 1350 1907 1856 
L 1907 2163 
L 1050 2163 
C 1344 2522 1600 2886 1830 3264 
L 1830 3629 
L 358 3629 
z
" transform="scale(0.015625)"/>
     <path id="PingFangHK-Regular-1a9c" d="M 544 4954 
L 544 2970 
L 1370 2970 
L 1370 198 
C 1229 160 1088 122 934 83 
L 934 2310 
L 525 2310 
L 525 -19 
C 435 -32 352 -51 262 -77 
L 390 -506 
C 1222 -301 1952 -77 2579 154 
L 2579 595 
C 2330 506 2067 416 1798 326 
L 1798 1523 
L 2458 1523 
L 2458 1946 
L 1798 1946 
L 1798 2970 
L 2394 2970 
L 2394 4954 
L 544 4954 
z
M 1958 3386 
L 979 3386 
L 979 4531 
L 1958 4531 
L 1958 3386 
z
M 2694 4525 
L 2694 4109 
L 3667 4109 
C 3366 3578 2931 3149 2368 2822 
L 2579 2438 
C 2931 2637 3245 2880 3514 3174 
L 3514 2861 
L 5050 2861 
L 5050 3181 
C 5293 2912 5594 2669 5946 2464 
L 6144 2867 
C 5574 3174 5158 3584 4890 4109 
L 5894 4109 
L 5894 4525 
L 4307 4525 
C 4378 4730 4442 4954 4493 5184 
L 4083 5229 
C 4032 4986 3955 4755 3866 4525 
L 2694 4525 
z
M 4979 3258 
L 3584 3258 
C 3795 3507 3981 3789 4134 4109 
L 4442 4109 
C 4570 3802 4749 3514 4979 3258 
z
M 2701 2240 
L 2701 1837 
L 3366 1837 
L 3098 794 
L 5088 794 
C 5056 352 5005 77 4941 -38 
C 4870 -141 4691 -198 4403 -198 
C 4262 -198 4102 -186 3923 -160 
L 4070 -550 
C 4192 -576 4333 -589 4493 -589 
C 4890 -589 5158 -506 5299 -352 
C 5440 -186 5530 333 5568 1197 
L 3635 1197 
L 3827 1837 
L 5856 1837 
L 5856 2240 
L 2701 2240 
z
" transform="scale(0.015625)"/>
     <path id="PingFangHK-Regular-724f" d="M 2701 3091 
L 2413 2822 
C 2650 2643 2886 2432 3123 2182 
C 3328 1965 3514 1741 3667 1523 
L 3987 1792 
C 3834 2010 3648 2234 3437 2451 
C 3187 2707 2944 2925 2701 3091 
z
" transform="scale(0.015625)"/>
     <path id="PingFangHK-Regular-2b" d="M 461 4570 
L 461 0 
L 986 0 
L 986 2131 
L 3629 2131 
L 3629 0 
L 4154 0 
L 4154 4570 
L 3629 4570 
L 3629 2586 
L 986 2586 
L 986 4570 
L 461 4570 
z
" transform="scale(0.015625)"/>
     <path id="PingFangHK-Regular-3a" d="M 32 4570 
L 1344 0 
L 1926 0 
L 2970 3808 
L 2989 3808 
L 4026 0 
L 4608 0 
L 5920 4570 
L 5331 4570 
L 4326 736 
L 4301 736 
L 3264 4570 
L 2694 4570 
L 1651 736 
L 1626 736 
L 621 4570 
L 32 4570 
z
" transform="scale(0.015625)"/>
     <path id="PingFangHK-Regular-1579" d="M 2445 819 
C 1856 525 1171 294 390 122 
L 448 -339 
C 1190 -160 1856 83 2445 378 
L 2445 819 
z
M 1421 5242 
C 1165 4486 870 3821 525 3238 
C 461 3149 397 3091 320 3059 
L 442 2637 
C 794 2688 1146 2752 1491 2816 
C 1139 2202 838 1773 595 1517 
C 538 1466 467 1414 384 1376 
L 512 954 
C 1126 1056 1773 1242 2445 1523 
L 2445 1952 
C 1990 1754 1542 1600 1094 1485 
C 1466 1946 1933 2707 2496 3770 
L 2080 3930 
C 1958 3686 1843 3462 1728 3245 
C 1446 3194 1165 3142 883 3104 
C 1216 3590 1542 4243 1862 5062 
L 1421 5242 
z
M 2662 2432 
C 3597 2502 4461 2598 5254 2726 
C 5363 2560 5459 2400 5549 2234 
L 5907 2483 
C 5670 2906 5331 3392 4896 3949 
L 4544 3731 
C 4704 3526 4858 3315 4998 3110 
C 4410 3014 3814 2944 3219 2893 
C 3437 3149 3686 3552 3968 4109 
L 5926 4109 
L 5926 4550 
L 4486 4550 
C 4397 4819 4301 5069 4205 5286 
L 3738 5210 
C 3840 5011 3936 4794 4026 4550 
L 2394 4550 
L 2394 4109 
L 3488 4109 
C 3142 3443 2867 3034 2650 2874 
C 2624 2867 2598 2854 2560 2842 
L 2662 2432 
z
M 3181 2170 
C 3155 1446 3066 922 2912 589 
C 2752 262 2483 -19 2106 -262 
L 2400 -627 
C 2835 -346 3142 -6 3328 390 
C 3494 768 3597 1363 3629 2170 
L 3181 2170 
z
M 5459 -525 
C 5741 -512 5920 -435 6003 -307 
C 6086 -166 6131 211 6131 813 
L 5734 954 
C 5734 576 5715 301 5690 122 
C 5664 -19 5581 -96 5440 -109 
L 5024 -109 
C 4922 -96 4877 -26 4877 109 
L 4877 2227 
L 4435 2227 
L 4435 32 
C 4435 -339 4627 -525 5011 -525 
L 5459 -525 
z
" transform="scale(0.015625)"/>
     <path id="PingFangHK-Regular-1987" d="M 2291 3309 
L 2291 2848 
L 4026 2848 
L 4026 -653 
L 4499 -653 
L 4499 2848 
L 6144 2848 
L 6144 3309 
L 4499 3309 
L 4499 5235 
L 4026 5235 
L 4026 3309 
L 2291 3309 
z
M 1037 5165 
L 717 4851 
C 1178 4506 1549 4173 1818 3859 
L 2131 4179 
C 1837 4512 1472 4838 1037 5165 
z
M 288 3270 
L 288 2829 
L 1229 2829 
L 1229 275 
C 1229 173 1178 83 1082 6 
L 1261 -410 
C 1715 -109 2144 230 2541 614 
L 2426 1088 
C 2157 832 1901 614 1670 422 
L 1670 3270 
L 288 3270 
z
" transform="scale(0.015625)"/>
     <path id="PingFangHK-Regular-7250" d="M 3200 3110 
C 2970 3110 2771 3034 2611 2880 
C 2445 2726 2368 2534 2368 2304 
C 2368 2074 2445 1888 2611 1734 
C 2771 1581 2970 1498 3200 1498 
C 3430 1498 3622 1581 3789 1734 
C 3949 1888 4032 2080 4032 2304 
C 4032 2534 3949 2726 3789 2880 
C 3622 3034 3430 3110 3200 3110 
z
M 3200 2771 
C 3328 2771 3443 2726 3539 2637 
C 3635 2547 3686 2432 3686 2304 
C 3686 2176 3635 2067 3539 1971 
C 3443 1882 3328 1837 3200 1837 
C 3066 1837 2950 1882 2861 1971 
C 2758 2061 2714 2176 2714 2304 
C 2714 2438 2758 2547 2861 2637 
C 2950 2726 3066 2771 3200 2771 
z
" transform="scale(0.015625)"/>
    </defs>
    <use xlink:href="#PingFangHK-Regular-140f"/>
    <use xlink:href="#PingFangHK-Regular-5ba" transform="translate(100 0)"/>
    <use xlink:href="#PingFangHK-Regular-e0e" transform="translate(200 0)"/>
    <use xlink:href="#PingFangHK-Regular-3" transform="translate(300 0)"/>
    <use xlink:href="#PingFangHK-Regular-31" transform="translate(333.296875 0)"/>
    <use xlink:href="#PingFangHK-Regular-3" transform="translate(405.203125 0)"/>
    <use xlink:href="#PingFangHK-Regular-9a" transform="translate(438.5 0)"/>
    <use xlink:href="#PingFangHK-Regular-3" transform="translate(499 0)"/>
    <use xlink:href="#PingFangHK-Regular-27" transform="translate(532.296875 0)"/>
    <use xlink:href="#PingFangHK-Regular-3" transform="translate(602.890625 0)"/>
    <use xlink:href="#PingFangHK-Regular-11d9" transform="translate(636.1875 0)"/>
    <use xlink:href="#PingFangHK-Regular-b84" transform="translate(736.1875 0)"/>
    <use xlink:href="#PingFangHK-Regular-852d" transform="translate(836.1875 0)"/>
    <use xlink:href="#PingFangHK-Regular-726a" transform="translate(936.1875 0)"/>
    <use xlink:href="#PingFangHK-Regular-26" transform="translate(1036.1875 0)"/>
    <use xlink:href="#PingFangHK-Regular-31" transform="translate(1108.984375 0)"/>
    <use xlink:href="#PingFangHK-Regular-31" transform="translate(1180.890625 0)"/>
    <use xlink:href="#PingFangHK-Regular-3" transform="translate(1252.796875 0)"/>
    <use xlink:href="#PingFangHK-Regular-1331" transform="translate(1286.09375 0)"/>
    <use xlink:href="#PingFangHK-Regular-3" transform="translate(1386.09375 0)"/>
    <use xlink:href="#PingFangHK-Regular-25" transform="translate(1419.390625 0)"/>
    <use xlink:href="#PingFangHK-Regular-31" transform="translate(1487.09375 0)"/>
    <use xlink:href="#PingFangHK-Regular-3" transform="translate(1559 0)"/>
    <use xlink:href="#PingFangHK-Regular-8762" transform="translate(1592.296875 0)"/>
    <use xlink:href="#PingFangHK-Regular-b09" transform="translate(1692.296875 0)"/>
    <use xlink:href="#PingFangHK-Regular-a52" transform="translate(1792.296875 0)"/>
    <use xlink:href="#PingFangHK-Regular-faf" transform="translate(1892.296875 0)"/>
    <use xlink:href="#PingFangHK-Regular-4fb" transform="translate(1992.296875 0)"/>
    <use xlink:href="#PingFangHK-Regular-8762" transform="translate(2092.296875 0)"/>
    <use xlink:href="#PingFangHK-Regular-8787" transform="translate(2192.296875 0)"/>
    <use xlink:href="#PingFangHK-Regular-1a9c" transform="translate(2292.296875 0)"/>
    <use xlink:href="#PingFangHK-Regular-3" transform="translate(2392.296875 0)"/>
    <use xlink:href="#PingFangHK-Regular-31" transform="translate(2425.59375 0)"/>
    <use xlink:href="#PingFangHK-Regular-724f" transform="translate(2497.5 0)"/>
    <use xlink:href="#PingFangHK-Regular-2b" transform="translate(2597.5 0)"/>
    <use xlink:href="#PingFangHK-Regular-724f" transform="translate(2669.5 0)"/>
    <use xlink:href="#PingFangHK-Regular-3a" transform="translate(2769.5 0)"/>
    <use xlink:href="#PingFangHK-Regular-3" transform="translate(2862.5 0)"/>
    <use xlink:href="#PingFangHK-Regular-1579" transform="translate(2895.796875 0)"/>
    <use xlink:href="#PingFangHK-Regular-1987" transform="translate(2995.796875 0)"/>
    <use xlink:href="#PingFangHK-Regular-7250" transform="translate(3095.796875 0)"/>
   </g>
  </g>
 </g>
 <defs>
  <clipPath id="p369c976fb6">
   <rect x="18" y="105.12" width="279" height="237.6"/>
  </clipPath>
  <clipPath id="p59e00db832">
   <rect x="341.64" y="105.12" width="279" height="237.6"/>
  </clipPath>
 </defs>
</svg>
